<svg width="548.43" height="140" xmlns="http://www.w3.org/2000/svg">
 <style type="text/css">.st0{fill:#ffffff;}</style>

 <g>
  <title>background</title>
  <rect fill="none" id="canvas_background" height="142" width="550.43" y="-1" x="-1"/>
 </g>
 <g>
  <title>Layer 1</title>
  <g id="svg_1">
   <g id="svg_2">
    <path id="svg_3" d="m67.81,95.93l0,-1.31l46.57,0l0,30.35c-9.72,6.08 -20.66,9.11 -32.81,9.11l-1.82,0c-11.38,0 -21.99,-2.98 -31.82,-8.95c-9.83,-5.97 -17.59,-13.89 -23.28,-23.78c-5.69,-9.89 -8.53,-20.41 -8.53,-31.57c0,-17.57 6.35,-32.67 19.06,-45.33c12.7,-12.65 27.9,-18.98 45.57,-18.98c11.82,0 23.03,3.1 33.64,9.28l0,6.13c-10.39,-7.07 -21.6,-10.6 -33.64,-10.6c-16.24,0 -30.16,5.83 -41.76,17.48c-11.6,11.66 -17.4,25.63 -17.4,41.93c0,16.3 5.8,30.3 17.4,42.01c11.6,11.71 25.52,17.57 41.76,17.57c9.06,0 18.45,-2.32 28.17,-6.96l0,-26.41l-41.11,0.03z" class="st0"/>
   </g>
   <g id="svg_4">
    <path id="svg_5" d="m138.24,17.01c-3.21,0 -4.81,-1.49 -4.81,-4.47c0,-2.98 1.6,-4.47 4.81,-4.47c3.2,0 4.81,1.49 4.81,4.47c0,2.98 -1.61,4.47 -4.81,4.47zm2.65,24.88l0,53.38l-5.3,-0.06l0,-53.32l5.3,0z" class="st0"/>
   </g>
   <g id="svg_6">
    <path id="svg_7" d="m191.27,5.49l0,4.64c-6.41,0 -11.85,2.21 -16.32,6.63c-4.48,4.42 -6.71,10 -6.71,16.74l0,10.39l23.2,-0.08l0,0.65l-23.2,0l0,50.17l-5.3,0l0,-61.13c0,-8.18 2.76,-14.89 8.29,-20.14c5.51,-5.24 12.2,-7.87 20.04,-7.87z" class="st0"/>
   </g>
   <g id="svg_8">
    <path id="svg_9" d="m231.67,91.21l0,4.69c-7.93,0 -14.68,-2.65 -20.26,-7.95c-5.58,-5.3 -8.37,-12.08 -8.37,-20.34l0,-62.1l5.36,0l0,38.86l23.11,-0.19l0,0.67l-23.11,0l0,22.75c0,6.81 2.26,12.45 6.78,16.91c4.52,4.47 10.02,6.7 16.49,6.7z" class="st0"/>
   </g>
   <g id="svg_10">
    <path id="svg_11" d="m473.62,91.2l0,4.69c-7.93,0 -14.68,-2.65 -20.26,-7.95c-5.58,-5.3 -8.37,-12.08 -8.37,-20.34l0,-62.09l5.36,0l0,39.06l23.1,0l0,0.28l-23.1,0l0,22.75c0,6.81 2.26,12.45 6.78,16.91c4.52,4.46 10.01,6.69 16.49,6.69z" class="st0"/>
   </g>
   <g id="svg_12">
    <path id="svg_13" d="m268.65,134.68l0.01,-90.1l3.8,-0.48l0,9.19c2.14,-4.35 5.48,-7.83 10.03,-10.44c4.55,-2.61 9.28,-3.92 14.18,-3.92c7.83,0 14.5,2.75 20,8.25c5.5,5.5 8.25,12.09 8.25,19.76c0,7.68 -2.75,14.26 -8.25,19.76c-5.5,5.5 -12.17,8.25 -20,8.25c-4.75,0 -9.38,-1.29 -13.89,-3.86c-4.51,-2.57 -7.95,-6.03 -10.33,-10.39l0,53.97l-3.8,0l0,0.01zm3.58,-67.61c0,6.65 2.43,12.4 7.3,17.27c4.87,4.87 10.64,7.3 17.33,7.3c6.69,0 12.4,-2.43 17.15,-7.3c4.75,-4.87 7.12,-10.64 7.12,-17.33c0,-6.69 -2.39,-12.48 -7.18,-17.39c-4.79,-4.91 -10.51,-7.36 -17.15,-7.36c-6.65,0 -12.4,2.47 -17.27,7.42c-4.87,4.94 -7.3,10.74 -7.3,17.39z" class="st0"/>
   </g>
   <g id="svg_14">
    <path id="svg_15" d="m364.41,91.32l0,4.7c-7.94,0 -14.7,-2.66 -20.29,-7.97c-5.59,-5.31 -8.39,-12.1 -8.39,-20.38l0,-62.16l5.37,0l0,62.16c0,6.82 2.26,12.47 6.79,16.94c4.53,4.47 10.04,6.71 16.52,6.71z" class="st0"/>
   </g>
   <g id="svg_16">
    <path id="svg_17" d="m425.73,40.07l0,53.6l-3.81,0l0,-13.34c-2.22,4.53 -5.56,8.1 -10.01,10.72c-4.45,2.62 -9.21,3.93 -14.3,3.93c-7.78,0 -14.45,-2.76 -20.01,-8.28c-5.56,-5.52 -8.34,-12.13 -8.34,-19.83c0,-7.7 2.78,-14.31 8.34,-19.83c5.56,-5.52 12.23,-8.28 20.01,-8.28c5.08,0 9.95,1.35 14.59,4.05c4.65,2.7 7.88,6.27 9.71,10.72l0,-13.46l3.82,0zm-52.65,26.92c0,6.67 2.44,12.45 7.32,17.33c4.88,4.88 10.68,7.32 17.39,7.32s12.45,-2.44 17.22,-7.32c4.76,-4.88 7.14,-10.68 7.14,-17.39c0,-6.71 -2.4,-12.53 -7.21,-17.45c-4.81,-4.92 -10.54,-7.39 -17.21,-7.39c-6.67,0 -12.45,2.48 -17.33,7.44c-4.88,4.97 -7.32,10.79 -7.32,17.46z" class="st0"/>
   </g>
   <g id="svg_18">
    <path id="svg_19" d="m528.79,92.76l0,3.27l-36.16,0l31.06,-51.18l-27.91,-0.03l0,-1.27l33.36,0l-29.98,49.22l29.63,0l0,-0.01z" class="st0"/>
   </g>
  </g>
  <g id="svg_20">
   <rect id="svg_21" height="1.29" width="123.64" class="st0" y="94.63" x="67.98"/>
  </g>
  <g id="svg_22">
   <rect id="svg_23" height="1.29" width="108.92" class="st0" y="43.52" x="163.52"/>
  </g>
  <g id="svg_24">
   <rect id="svg_25" height="1.29" width="26.18" class="st0" y="43.52" x="450.17"/>
  </g>
  <g id="svg_26">
   <path id="svg_27" d="m293.37,122.84l-10.25,0l0,-9.94l0.71,0l0,9.32l4.06,0l0,-9.32l0.71,0l0,9.32l4.06,0l0,-9.32l0.71,0l0,9.94z" class="st0"/>
   <path id="svg_28" d="m295.91,117.83c0,-1.4 0.52,-2.61 1.55,-3.63s2.27,-1.53 3.72,-1.53c1.45,0 2.69,0.51 3.71,1.53s1.53,2.24 1.53,3.64s-0.5,2.63 -1.5,3.68c-1,1.05 -2.22,1.57 -3.64,1.57l-0.22,0c-1.38,0 -2.59,-0.53 -3.61,-1.58c-1.03,-1.06 -1.54,-2.28 -1.54,-3.68zm9.8,0.06c0,-1.24 -0.45,-2.32 -1.34,-3.23s-1.95,-1.37 -3.19,-1.37s-2.31,0.46 -3.21,1.38c-0.91,0.92 -1.36,2 -1.36,3.23s0.45,2.31 1.36,3.21s1.98,1.36 3.22,1.36c1.24,0 2.31,-0.45 3.19,-1.36s1.33,-1.98 1.33,-3.22z" class="st0"/>
   <path id="svg_29" d="m308.96,112.91l0.71,0l0,3.44l3.93,-3.44l0.91,0l-4.55,3.97l5.7,5.96l-0.95,0l-5.03,-5.23l0,5.23l-0.71,0l0,-9.93l-0.01,0z" class="st0"/>
   <path id="svg_30" d="m317.08,117.83c0,-1.4 0.52,-2.61 1.55,-3.63s2.27,-1.53 3.72,-1.53c1.45,0 2.69,0.51 3.71,1.53s1.53,2.24 1.53,3.64s-0.5,2.63 -1.5,3.68c-1,1.05 -2.22,1.57 -3.64,1.57l-0.22,0c-1.38,0 -2.59,-0.53 -3.61,-1.58c-1.03,-1.06 -1.54,-2.28 -1.54,-3.68zm9.8,0.06c0,-1.24 -0.45,-2.32 -1.34,-3.23s-1.95,-1.37 -3.19,-1.37s-2.31,0.46 -3.21,1.38c-0.91,0.92 -1.36,2 -1.36,3.23s0.45,2.31 1.36,3.21s1.98,1.36 3.22,1.36c1.24,0 2.31,-0.45 3.19,-1.36s1.33,-1.98 1.33,-3.22z" class="st0"/>
   <path id="svg_31" d="m329.67,122.84l-0.64,0l4.88,-10.22l4.9,10.22l-0.77,0l-4.2,-8.72l-4.17,8.72z" class="st0"/>
   <path id="svg_32" d="m350.71,112.91l0,9.94l-0.71,0l0,-2.47c-0.41,0.84 -1.03,1.5 -1.85,1.99s-1.71,0.73 -2.65,0.73c-1.44,0 -2.68,-0.51 -3.71,-1.53s-1.55,-2.25 -1.55,-3.68s0.52,-2.65 1.55,-3.68s2.27,-1.53 3.71,-1.53c0.94,0 1.84,0.25 2.7,0.75c0.86,0.5 1.46,1.16 1.8,1.99l0,-2.5l0.71,0l0,-0.01zm-9.76,4.99c0,1.24 0.45,2.31 1.36,3.21s1.98,1.36 3.22,1.36c1.24,0 2.31,-0.45 3.19,-1.36s1.32,-1.98 1.32,-3.22c0,-1.24 -0.45,-2.32 -1.34,-3.23s-1.95,-1.37 -3.19,-1.37s-2.31,0.46 -3.21,1.38c-0.9,0.91 -1.35,1.99 -1.35,3.23z" class="st0"/>
   <path id="svg_33" d="m352.92,124.1l0,-1.83l0.77,0l4.61,-9.65l4.61,9.63l0.73,0l0,1.85l-0.62,0l0,-1.26l-9.54,0l0,1.26l-0.56,0zm5.32,-9.98l-3.89,8.13l7.79,0l-3.9,-8.13z" class="st0"/>
   <path id="svg_34" d="m372.48,124.1l0,-1.83l0.77,0l4.61,-9.65l4.61,9.63l0.73,0l0,1.85l-0.62,0l0,-1.26l-9.54,0l0,1.26l-0.56,0zm5.32,-9.98l-3.89,8.13l7.79,0l-3.9,-8.13z" class="st0"/>
   <path id="svg_35" d="m393.87,112.93l0,9.91l-0.68,0l0,-8.81l-7.15,8.81l-0.62,0l0,-9.91l0.68,0l0,8.81l7.13,-8.81l0.64,0z" class="st0"/>
   <path id="svg_36" d="m398.93,112.73c0.63,0 1.16,0.2 1.58,0.61c0.42,0.41 0.63,0.85 0.63,1.32c0,0.48 -0.1,0.87 -0.3,1.18c-0.2,0.31 -0.43,0.53 -0.7,0.66c0.66,0.18 1.23,0.58 1.7,1.2c0.47,0.63 0.71,1.35 0.71,2.17s-0.34,1.57 -1.03,2.24c-0.68,0.67 -1.5,1 -2.44,1c-1.25,0 -2.22,-0.5 -2.89,-1.5l0,-1.32c0.22,0.66 0.58,1.2 1.08,1.61s1.11,0.62 1.83,0.62c0.72,0 1.36,-0.28 1.91,-0.84c0.55,-0.56 0.83,-1.22 0.83,-1.98c0,-0.76 -0.28,-1.42 -0.83,-1.99c-0.55,-0.57 -1.2,-0.85 -1.93,-0.85l-0.53,0l0,-0.6l0.44,0c0.4,0 0.74,-0.15 1.02,-0.44s0.42,-0.64 0.42,-1.04s-0.14,-0.74 -0.42,-1.04s-0.62,-0.44 -1.02,-0.44c-0.82,0 -1.4,0.52 -1.72,1.57l0,-1.39c0.47,-0.49 1.03,-0.75 1.66,-0.75z" class="st0"/>
   <path id="svg_37" d="m414.78,112.91l0,9.94l-0.71,0l0,-2.47c-0.41,0.84 -1.03,1.5 -1.85,1.99s-1.71,0.73 -2.65,0.73c-1.44,0 -2.68,-0.51 -3.71,-1.53s-1.55,-2.25 -1.55,-3.68s0.52,-2.65 1.55,-3.68s2.27,-1.53 3.71,-1.53c0.94,0 1.84,0.25 2.7,0.75c0.86,0.5 1.46,1.16 1.8,1.99l0,-2.5l0.71,0l0,-0.01zm-9.76,4.99c0,1.24 0.45,2.31 1.36,3.21s1.98,1.36 3.22,1.36c1.24,0 2.31,-0.45 3.19,-1.36s1.32,-1.98 1.32,-3.22c0,-1.24 -0.45,-2.32 -1.34,-3.23s-1.95,-1.37 -3.19,-1.37s-2.31,0.46 -3.21,1.38c-0.89,0.91 -1.35,1.99 -1.35,3.23z" class="st0"/>
   <path id="svg_38" d="m426.55,112.93l0,9.91l-0.68,0l0,-8.81l-7.15,8.81l-0.62,0l0,-9.91l0.68,0l0,8.81l7.13,-8.81l0.64,0zm-5.43,-4.03c0.41,0.39 0.89,0.58 1.42,0.58c0.54,0 1.01,-0.2 1.42,-0.6c0.41,-0.4 0.65,-0.86 0.71,-1.39l0.64,0c-0.03,0.69 -0.31,1.29 -0.83,1.8s-1.14,0.76 -1.84,0.76l-0.18,0c-0.71,0 -1.32,-0.25 -1.83,-0.75c-0.52,-0.5 -0.79,-1.1 -0.82,-1.81l0.62,0c0.05,0.55 0.28,1.02 0.69,1.41z" class="st0"/>
   <path id="svg_39" d="m437.3,112.91l0.71,0l0,9.94l-0.71,0l0,-3.73l-6.73,0l0,3.73l-0.71,0l0,-9.94l0.71,0l0,5.59l6.73,0l0,-5.59z" class="st0"/>
   <path id="svg_40" d="m449.05,112.91l7.99,0l0,9.94l-0.71,0l0,-9.32l-6.58,0l0,9.32l-0.71,0l0,-9.94l0.01,0z" class="st0"/>
   <path id="svg_41" d="m459.58,117.83c0,-1.4 0.52,-2.61 1.55,-3.63s2.27,-1.53 3.72,-1.53c1.45,0 2.69,0.51 3.71,1.53s1.53,2.24 1.53,3.64s-0.5,2.63 -1.5,3.68c-1,1.05 -2.22,1.57 -3.64,1.57l-0.22,0c-1.38,0 -2.59,-0.53 -3.61,-1.58c-1.03,-1.06 -1.54,-2.28 -1.54,-3.68zm9.8,0.06c0,-1.24 -0.45,-2.32 -1.34,-3.23s-1.95,-1.37 -3.19,-1.37s-2.31,0.46 -3.21,1.38c-0.91,0.92 -1.36,2 -1.36,3.23s0.45,2.31 1.36,3.21s1.98,1.36 3.22,1.36c1.24,0 2.31,-0.45 3.19,-1.36s1.33,-1.98 1.33,-3.22z" class="st0"/>
   <path id="svg_42" d="m471.53,124.1l0,-1.83l0.77,0l4.61,-9.65l4.61,9.63l0.73,0l0,1.85l-0.62,0l0,-1.26l-9.54,0l0,1.26l-0.56,0zm5.32,-9.98l-3.89,8.13l7.79,0l-3.9,-8.13z" class="st0"/>
   <path id="svg_43" d="m483.69,117.83c0,-1.4 0.52,-2.61 1.55,-3.63s2.27,-1.53 3.72,-1.53c1.45,0 2.69,0.51 3.71,1.53s1.53,2.24 1.53,3.64s-0.5,2.63 -1.5,3.68c-1,1.05 -2.22,1.57 -3.64,1.57l-0.22,0c-1.38,0 -2.59,-0.53 -3.61,-1.58c-1.03,-1.06 -1.54,-2.28 -1.54,-3.68zm9.8,0.06c0,-1.24 -0.45,-2.32 -1.34,-3.23s-1.95,-1.37 -3.19,-1.37s-2.31,0.46 -3.21,1.38c-0.91,0.92 -1.36,2 -1.36,3.23s0.45,2.31 1.36,3.21s1.98,1.36 3.22,1.36c1.24,0 2.31,-0.45 3.19,-1.36s1.33,-1.98 1.33,-3.22z" class="st0"/>
   <path id="svg_44" d="m496.74,127.26l0,-14.35l0.71,0l0,2.43c0.4,-0.81 1.02,-1.46 1.87,-1.94c0.85,-0.49 1.73,-0.73 2.64,-0.73c1.46,0 2.7,0.51 3.72,1.53c1.02,1.02 1.53,2.25 1.53,3.68s-0.51,2.65 -1.53,3.68c-1.02,1.02 -2.26,1.53 -3.72,1.53c-0.88,0 -1.74,-0.24 -2.58,-0.72c-0.84,-0.48 -1.48,-1.12 -1.92,-1.93l0,6.82l-0.72,0zm0.66,-9.36c0,1.24 0.45,2.31 1.36,3.21s1.98,1.36 3.22,1.36c1.24,0 2.31,-0.45 3.19,-1.36s1.32,-1.98 1.32,-3.22c0,-1.24 -0.45,-2.32 -1.34,-3.23c-0.89,-0.91 -1.95,-1.37 -3.19,-1.37c-1.24,0 -2.31,0.46 -3.21,1.38c-0.89,0.91 -1.35,1.99 -1.35,3.23z" class="st0"/>
   <path id="svg_45" d="m508.97,117.83c0,-1.4 0.52,-2.61 1.55,-3.63s2.27,-1.53 3.72,-1.53c1.45,0 2.69,0.51 3.71,1.53s1.53,2.24 1.53,3.64s-0.5,2.63 -1.5,3.68c-1,1.05 -2.22,1.57 -3.64,1.57l-0.22,0c-1.38,0 -2.59,-0.53 -3.61,-1.58c-1.03,-1.06 -1.54,-2.28 -1.54,-3.68zm9.81,0.06c0,-1.24 -0.45,-2.32 -1.34,-3.23s-1.95,-1.37 -3.19,-1.37s-2.31,0.46 -3.21,1.38c-0.91,0.92 -1.36,2 -1.36,3.23s0.45,2.31 1.36,3.21s1.98,1.36 3.22,1.36c1.24,0 2.31,-0.45 3.19,-1.36s1.33,-1.98 1.33,-3.22z" class="st0"/>
   <path id="svg_46" d="m522.02,112.91l0.71,0l0,3.44l3.93,-3.44l0.91,0l-4.55,3.97l5.7,5.96l-0.95,0l-5.03,-5.23l0,5.23l-0.71,0l0,-9.93l-0.01,0z" class="st0"/>
  </g>
  <path id="svg_47" d="m-134.285,114.69812l63.285,-152.69812l-67,58" opacity="0.5" stroke-width="1.5" stroke="#000" fill="#fff"/>
 </g>
</svg>