<svg version="1.1" xmlns="http://www.w3.org/2000/svg" xmlns:xlink="http://www.w3.org/1999/xlink" width="30" height="41"><defs/><g><path fill="rgb(255,255,255)" stroke="none" paint-order="stroke fill markers" fill-rule="evenodd" d=" M 15.000473022460938 1.9909169673919678 C 7.818809509277344 1.9909169673919678 1.9968490600585938 7.7688493728637695 1.9968490600585938 14.896647453308105 C 1.9968490600585938 14.896647453308105 1.9968490600585938 27.081469535827637 1.9968490600585938 27.081469535827637 C 1.9968490600585938 34.208691120147705 7.818809509277344 39.98662352561951 15.000473022460938 39.98662352561951 C 22.18213653564453 39.98662352561951 28.00433349609375 34.208691120147705 28.00433349609375 27.081469535827637 C 28.00433349609375 27.081469535827637 28.00433349609375 14.896647453308105 28.00433349609375 14.896647453308105 C 28.00433349609375 7.7688493728637695 22.18213653564453 1.9909169673919678 15.000473022460938 1.9909169673919678 Z M 26.21796417236328 27.081469535827637 C 26.21796417236328 33.22000026702881 21.185951232910156 38.213897943496704 15.000473022460938 38.213897943496704 C 8.814994812011719 38.213897943496704 3.782745361328125 33.22000026702881 3.782745361328125 27.081469535827637 C 3.782745361328125 27.081469535827637 3.782745361328125 14.896647453308105 3.782745361328125 14.896647453308105 C 3.782745361328125 8.7578284740448 8.814994812011719 3.7636425495147705 15.000473022460938 3.7636425495147705 C 21.185951232910156 3.7636425495147705 26.21796417236328 8.7578284740448 26.21796417236328 14.896647453308105 C 26.21796417236328 14.896647453308105 26.21796417236328 27.081469535827637 26.21796417236328 27.081469535827637 Z M 15.000473022460938 11.702282428741455 C 14.065544128417969 11.702282428741455 13.307762145996094 12.454609870910645 13.307762145996094 13.382192134857178 C 13.307762145996094 14.310639142990112 14.065544128417969 15.062390089035034 15.000473022460938 15.062390089035034 C 15.935401916503906 15.062390089035034 16.69365692138672 14.310639142990112 16.69365692138672 13.382192134857178 C 16.69365692138672 12.454609870910645 15.935401916503906 11.702282428741455 15.000473022460938 11.702282428741455 Z"/></g></svg>