<svg version="1.1" xmlns="http://www.w3.org/2000/svg" xmlns:xlink="http://www.w3.org/1999/xlink" width="20" height="20"><defs/><g><path fill="rgb(45,48,51)" stroke="none" paint-order="stroke fill markers" fill-rule="evenodd" d=" M 18.729329109191895 3.161372423171997 C 18.729329109191895 3.161372423171997 17.500678062438965 1.9331474304199219 17.500678062438965 1.9331474304199219 C 17.500678062438965 1.9331474304199219 10.222846031188965 9.211987495422363 10.222846031188965 9.211987495422363 C 10.222846031188965 9.211987495422363 2.942429542541504 1.9331474304199219 2.942429542541504 1.9331474304199219 C 2.942429542541504 1.9331474304199219 1.7150707244873047 3.161372423171997 1.7150707244873047 3.161372423171997 C 1.7150707244873047 3.161372423171997 8.994194984436035 10.440500736236572 8.994194984436035 10.440500736236572 C 8.994194984436035 10.440500736236572 1.7150707244873047 17.71905255317688 1.7150707244873047 17.71905255317688 C 1.7150707244873047 17.71905255317688 2.942429542541504 18.94756579399109 2.942429542541504 18.94756579399109 C 2.942429542541504 18.94756579399109 10.222846031188965 11.667860984802246 10.222846031188965 11.667860984802246 C 10.222846031188965 11.667860984802246 17.500678062438965 18.94756579399109 17.500678062438965 18.94756579399109 C 17.500678062438965 18.94756579399109 18.729329109191895 17.71905255317688 18.729329109191895 17.71905255317688 C 18.729329109191895 17.71905255317688 11.450204849243164 10.440500736236572 11.450204849243164 10.440500736236572 C 11.450204849243164 10.440500736236572 18.729329109191895 3.161372423171997 18.729329109191895 3.161372423171997 Z"/></g></svg>