<svg version="1.1" xmlns="http://www.w3.org/2000/svg" xmlns:xlink="http://www.w3.org/1999/xlink" width="391" height="82"><defs/><g><path fill="rgb(255,255,255)" stroke="none" paint-order="stroke fill markers" fill-rule="evenodd" d=" M 231.9359893798828 26.256019830703735 C 227.7629852294922 22.773228883743286 223.12523651123047 20.978923559188843 218.1577911376953 20.921714782714844 C 218.1577911376953 20.921714782714844 217.84772491455078 20.921714782714844 217.84772491455078 20.921714782714844 C 215.9229965209961 20.921714782714844 214.29698181152344 21.227269172668457 213.01769256591797 21.82944941520691 C 211.71759033203125 22.442873001098633 210.65778350830078 23.115820169448853 209.87256622314453 23.82547354698181 C 209.34727478027344 24.317204475402832 208.91422271728516 24.802983045578003 208.58594512939453 25.26958179473877 C 208.25955963134766 25.731550931930542 208.02825164794922 26.1025812625885 207.8981704711914 26.37275218963623 C 207.8981704711914 26.37275218963623 207.0959243774414 26.18889045715332 207.0959243774414 26.18889045715332 C 207.0959243774414 26.18889045715332 207.0959243774414 21.49611735343933 207.0959243774414 21.49611735343933 C 206.39845275878906 21.58242654800415 205.79511260986328 21.649555921554565 205.28448486328125 21.69618272781372 C 204.66600799560547 21.75339150428772 204.08182525634766 21.81159234046936 203.48936462402344 21.870123863220215 C 203.48936462402344 21.870123863220215 169.06444549560547 21.870123863220215 169.06444549560547 21.870123863220215 C 169.06444549560547 21.870123863220215 169.06444549560547 6.938963890075684 169.06444549560547 6.938963890075684 C 169.06444549560547 6.938963890075684 159.853515625 9.685646533966064 159.853515625 9.685646533966064 C 159.853515625 9.685646533966064 159.853515625 21.870123863220215 159.853515625 21.870123863220215 C 159.853515625 21.870123863220215 151.43915557861328 21.870123863220215 151.43915557861328 21.870123863220215 C 151.43915557861328 21.870123863220215 151.43915557861328 22.684935569763184 151.43915557861328 22.684935569763184 C 151.43915557861328 22.684935569763184 159.853515625 22.684935569763184 159.853515625 22.684935569763184 C 159.853515625 22.684935569763184 159.853515625 49.19839262962341 159.853515625 49.19839262962341 C 159.853515625 51.89150404930115 160.4991912841797 54.1414954662323 161.77233123779297 55.887189865112305 C 163.0177993774414 57.590556383132935 165.6818618774414 58.454309701919556 169.69261932373047 58.454309701919556 C 170.3484649658203 58.454309701919556 171.03363800048828 58.39842367172241 171.7306365966797 58.28731298446655 C 172.4259796142578 58.17785573005676 173.15892791748047 58.0356605052948 173.89542388916016 57.8686637878418 C 175.16477966308594 57.533347606658936 176.45140075683594 57.0531907081604 177.71815490722656 56.44108986854553 C 178.8373260498047 55.89942526817322 179.89051055908203 55.26417636871338 180.85311126708984 54.55022406578064 C 180.85311126708984 54.55022406578064 180.4174575805664 54.11437916755676 180.4174575805664 54.11437916755676 C 178.86168670654297 55.16497039794922 177.49488830566406 55.8250207901001 176.3518295288086 56.077996015548706 C 175.14633178710938 56.34452939033508 174.31121063232422 56.47448921203613 173.7982177734375 56.47448921203613 C 173.7982177734375 56.47448921203613 172.92525482177734 56.47448921203613 172.92525482177734 56.47448921203613 C 172.64877319335938 56.47448921203613 172.3852996826172 56.43943643569946 172.18331909179688 56.38090491294861 C 171.4922332763672 56.25392127037048 170.85317993164062 55.93150186538696 170.28389739990234 55.42422866821289 C 169.6841049194336 54.89083123207092 169.3208236694336 53.962263345718384 169.17655181884766 52.621659994125366 C 169.0996856689453 52.23905563354492 169.06444549560547 51.96723127365112 169.06444549560547 51.768157958984375 C 169.06444549560547 51.768157958984375 169.06444549560547 22.684935569763184 169.06444549560547 22.684935569763184 C 169.06444549560547 22.684935569763184 197.81664276123047 22.694525480270386 197.81664276123047 22.694525480270386 C 197.81664276123047 22.694525480270386 197.81664276123047 80.17115807533264 197.81664276123047 80.17115807533264 C 197.81664276123047 80.17115807533264 191.30879974365234 80.17115807533264 191.30879974365234 80.17115807533264 C 191.30879974365234 80.17115807533264 191.30879974365234 80.99622106552124 191.30879974365234 80.99622106552124 C 191.30879974365234 80.99622106552124 213.60376739501953 80.99622106552124 213.60376739501953 80.99622106552124 C 213.60376739501953 80.99622106552124 213.60376739501953 80.17115807533264 213.60376739501953 80.17115807533264 C 213.60376739501953 80.17115807533264 207.0959243774414 80.17115807533264 207.0959243774414 80.17115807533264 C 207.0959243774414 80.17115807533264 207.0959243774414 53.881245136260986 207.0959243774414 53.881245136260986 C 207.0959243774414 53.881245136260986 207.8324203491211 54.70498538017273 207.8324203491211 54.70498538017273 C 208.03936767578125 54.937127351760864 208.28226470947266 55.21126651763916 208.5604019165039 55.53004837036133 C 208.8080291748047 55.81576156616211 209.12850189208984 56.0968451499939 209.54405212402344 56.387518644332886 C 210.25855255126953 56.98473858833313 211.2244644165039 57.511852979660034 212.41624450683594 57.95365023612976 C 213.60211181640625 58.39412474632263 215.1865005493164 58.61733818054199 217.1247100830078 58.61733818054199 C 222.84591674804688 58.61733818054199 227.8431625366211 56.752596616744995 231.97808837890625 53.07668471336365 C 236.0995330810547 49.41201615333557 238.18958282470703 44.97883200645447 238.18958282470703 39.89816355705261 C 238.18958282470703 34.310221910476685 236.0851058959961 29.719961643218994 231.9359893798828 26.256019830703735 Z M 227.46427154541016 44.813488721847534 C 227.46427154541016 48.67227029800415 226.83255004882812 51.57900524139404 225.5854263305664 53.45499014854431 C 224.3404312133789 55.32601475715637 222.94075775146484 56.609740018844604 221.4320526123047 57.269129037857056 C 220.64612579345703 57.62759327888489 219.9001693725586 57.870317220687866 219.2128677368164 57.99101781845093 C 218.5423583984375 58.10907292366028 217.90874481201172 58.1692578792572 217.33165740966797 58.1692578792572 C 216.97665405273438 58.1692578792572 216.5897216796875 58.15603041648865 216.1658935546875 58.12560725212097 C 215.71983337402344 58.09485340118408 215.30191802978516 58.01581931114197 214.97269439697266 57.901732444763184 C 212.9878921508789 57.48870491981506 211.17337799072266 56.633549451828 209.57976531982422 55.3623902797699 C 207.9315185546875 54.047911167144775 207.0959243774414 52.41431951522827 207.0959243774414 50.504273891448975 C 207.0959243774414 50.504273891448975 207.0959243774414 31.276503324508667 207.0959243774414 31.276503324508667 C 207.0959243774414 28.573140621185303 208.1706314086914 26.275530338287354 210.29000854492188 24.445841550827026 C 212.3907012939453 22.63334846496582 214.89866638183594 21.713709115982056 217.74507904052734 21.713709115982056 C 220.24050903320312 21.713709115982056 222.5013198852539 22.513970613479614 224.46554565429688 24.09200692176819 C 226.4557876586914 25.69385266304016 227.46427154541016 28.80726671218872 227.46427154541016 33.34593987464905 C 227.46427154541016 33.34593987464905 227.46427154541016 44.813488721847534 227.46427154541016 44.813488721847534 Z M 265.2041320800781 56.69770264625549 C 265.2041320800781 56.69770264625549 258.7393341064453 56.69770264625549 258.7393341064453 56.69770264625549 C 258.7393341064453 56.69770264625549 258.7393341064453 2.0957283973693848 258.7393341064453 2.0957283973693848 C 257.9288101196289 2.2600796222686768 257.0790252685547 2.371190309524536 256.2124481201172 2.426084280014038 C 255.32127380371094 2.483293056488037 254.2068328857422 2.5127241611480713 252.90081787109375 2.5127241611480713 C 252.90081787109375 2.5127241611480713 243.06171417236328 2.5127241611480713 243.06171417236328 2.5127241611480713 C 243.06171417236328 2.5127241611480713 243.06171417236328 3.32753586769104 243.06171417236328 3.32753586769104 C 243.06171417236328 3.32753586769104 249.5279312133789 3.32753586769104 249.5279312133789 3.32753586769104 C 249.5279312133789 3.32753586769104 249.5279312133789 56.69770264625549 249.5279312133789 56.69770264625549 C 249.5279312133789 56.69770264625549 243.06171417236328 56.69770264625549 243.06171417236328 56.69770264625549 C 243.06171417236328 56.69770264625549 243.06171417236328 57.511852979660034 243.06171417236328 57.511852979660034 C 243.06171417236328 57.511852979660034 265.2041320800781 57.511852979660034 265.2041320800781 57.511852979660034 C 265.2041320800781 57.511852979660034 265.2041320800781 56.69770264625549 265.2041320800781 56.69770264625549 Z M 314.50939178466797 54.047911167144775 C 314.46492767333984 54.09123110771179 314.4159698486328 54.13388967514038 314.3629913330078 54.17853236198425 C 314.2094955444336 54.30683875083923 314.0777587890625 54.44142818450928 313.9587936401367 54.589906454086304 C 313.9587936401367 54.589906454086304 313.9325408935547 54.62396717071533 313.9325408935547 54.62396717071533 C 313.9325408935547 54.62396717071533 313.89942932128906 54.65108346939087 313.89942932128906 54.65108346939087 C 313.5463180541992 54.946717262268066 313.14566802978516 55.23772144317627 312.67359161376953 55.54162240028381 C 312.21026611328125 55.83890962600708 311.7559280395508 56.081302881240845 311.3219299316406 56.26218843460083 C 311.02037811279297 56.38818001747131 310.71788024902344 56.48341774940491 310.4231872558594 56.54360270500183 C 310.1195068359375 56.606433153152466 309.81346130371094 56.63850975036621 309.51356506347656 56.63850975036621 C 308.6389465332031 56.63850975036621 307.9975280761719 56.418272495269775 307.6068115234375 55.98341965675354 C 307.2593765258789 55.59783911705017 307.005126953125 55.17257618904114 306.8485565185547 54.708953619003296 C 306.76719665527344 54.443742990493774 306.7260437011719 54.18613815307617 306.7260437011719 53.94076871871948 C 306.7260437011719 53.94076871871948 306.7260437011719 31.05957293510437 306.7260437011719 31.05957293510437 C 306.7260437011719 30.55329179763794 306.7083053588867 30.04800271987915 306.6751937866211 29.543044328689575 C 306.64160919189453 29.049659967422485 306.55859375 28.524529695510864 306.42803955078125 27.97525930404663 C 306.04205322265625 26.258665323257446 304.78357696533203 24.63929319381714 302.6883239746094 23.163108348846436 C 300.5748596191406 21.67634153366089 296.3997268676758 20.92237615585327 290.27857971191406 20.92237615585327 C 285.96910858154297 20.92237615585327 282.0659637451172 21.70378851890564 278.67628479003906 23.24478793144226 C 275.3466796875 24.758671045303345 273.7284698486328 26.66871666908264 273.7284698486328 29.08438205718994 C 273.7284698486328 30.80825114250183 274.2544708251953 32.12438368797302 275.33863830566406 33.10784554481506 C 276.41712951660156 34.088661909103394 277.87947845458984 34.586345195770264 279.68382263183594 34.586345195770264 C 281.61328125 34.586345195770264 283.0860366821289 34.07973337173462 284.0616455078125 33.081390619277954 C 285.0540466308594 32.06717491149902 285.5360565185547 30.956398725509644 285.5360565185547 29.68623161315918 C 285.5360565185547 29.29965901374817 285.46439361572266 28.958059787750244 285.32437896728516 28.67366933822632 C 285.1711196899414 28.36844563484192 285.00272369384766 28.08471655845642 284.82250213623047 27.828434467315674 C 284.6664047241211 27.69384503364563 284.5483856201172 27.556610107421875 284.4658432006836 27.41507625579834 C 284.4658432006836 27.41507625579834 284.2605514526367 27.07215428352356 284.2605514526367 27.07215428352356 C 284.17540740966797 26.93293523788452 284.1136779785156 26.809258460998535 284.0784378051758 26.716996908187866 C 284.0486373901367 26.644907236099243 284.00464630126953 26.562235593795776 283.9845428466797 26.51726222038269 C 283.8149642944336 26.308268308639526 283.68724822998047 26.07678771018982 283.6051788330078 25.832079648971558 C 283.53375244140625 25.62606191635132 283.4620895385742 25.404171228408813 283.406982421875 25.208404779434204 C 283.3251495361328 25.005693912506104 283.2648391723633 24.78744077682495 283.22865295410156 24.5668728351593 C 283.19010162353516 24.352257251739502 283.17047119140625 24.13929510116577 283.17047119140625 23.93294668197632 C 283.17047119140625 22.65285897254944 284.96582794189453 22.240162134170532 285.556396484375 22.104580640792847 C 286.9558334350586 21.78414535522461 288.5104217529297 21.621447563171387 290.17640686035156 21.621447563171387 C 292.8437805175781 21.621447563171387 294.61832427978516 22.049686670303345 295.6024475097656 22.931958436965942 C 296.55818939208984 23.794058322906494 297.15608978271484 24.796369314193726 297.3760452270508 25.897886276245117 C 297.4514923095703 26.22295117378235 297.4902801513672 26.558598041534424 297.4902801513672 26.895567655563354 C 297.4902801513672 26.895567655563354 297.4902801513672 37.88229823112488 297.4902801513672 37.88229823112488 C 297.4902801513672 37.88229823112488 297.0241165161133 37.83401799201965 297.0241165161133 37.83401799201965 C 296.4865264892578 37.77813196182251 295.9304885864258 37.75002360343933 295.37066650390625 37.75002360343933 C 295.37066650390625 37.75002360343933 293.67298889160156 37.75002360343933 293.67298889160156 37.75002360343933 C 286.77442932128906 37.75002360343933 281.10596466064453 38.74770498275757 276.82582092285156 40.71628212928772 C 272.59605407714844 42.66237258911133 270.5398254394531 45.541329860687256 270.5398254394531 49.51882791519165 C 270.5398254394531 52.011873960494995 271.5298614501953 54.14314889907837 273.4810791015625 55.854782581329346 C 275.4497985839844 57.57964372634888 278.33216094970703 58.454309701919556 282.04964447021484 58.454309701919556 C 283.92494201660156 58.454309701919556 286.0530700683594 58.15536904335022 288.37442779541016 57.565754890441895 C 290.67686462402344 56.98077034950256 293.5176010131836 55.45895075798035 296.8188247680664 53.04097056388855 C 296.8188247680664 53.04097056388855 297.3341827392578 52.66365718841553 297.3341827392578 52.66365718841553 C 297.3341827392578 52.66365718841553 297.4794006347656 53.28667068481445 297.4794006347656 53.28667068481445 C 297.537109375 53.53435492515564 297.62745666503906 53.77311062812805 297.7490234375 53.99963092803955 C 297.87792205810547 54.24136281013489 298.0411148071289 54.499298334121704 298.2471160888672 54.786664962768555 C 298.82869720458984 55.704320192337036 299.7037887573242 56.55782222747803 300.85015869140625 57.32336163520813 C 301.9742965698242 58.073689460754395 303.5742950439453 58.454309701919556 305.6056900024414 58.454309701919556 C 306.2019348144531 58.454309701919556 307.14632415771484 58.38519620895386 308.49183654785156 58.24200892448425 C 309.7682876586914 58.1047739982605 311.1156921386719 57.64478898048401 312.50779724121094 56.870651721954346 C 313.02528381347656 56.60081148147583 313.55364990234375 56.242016553878784 314.07799530029297 55.805179595947266 C 314.4947280883789 55.45762801170349 314.8972702026367 55.06840991973877 315.2789993286133 54.64446973800659 C 315.2789993286133 54.64446973800659 314.50939178466797 54.047911167144775 314.50939178466797 54.047911167144775 Z M 297.4902801513672 50.72087359428406 C 297.4902801513672 51.02543592453003 297.40040588378906 51.330328941345215 297.2230224609375 51.627946853637695 C 297.0664520263672 51.8855516910553 296.8401107788086 52.16961145401001 296.5146713256836 52.50591969490051 C 296.0189437866211 52.91894721984863 295.39550018310547 53.350162506103516 294.66065979003906 53.78898358345032 C 293.91919708251953 54.2297887802124 293.15313720703125 54.60148048400879 292.41072845458984 54.88190269470215 C 291.77049255371094 55.17985129356384 291.11961364746094 55.40637159347534 290.475830078125 55.55484986305237 C 289.8296813964844 55.704320192337036 289.2443161010742 55.780378103256226 288.73534393310547 55.780378103256226 C 286.88866424560547 55.780378103256226 285.1770324707031 55.35809135437012 283.64869689941406 54.52641463279724 C 282.0349807739258 53.65075659751892 281.21570587158203 51.93647742271423 281.21570587158203 49.432849407196045 C 281.21570587158203 44.70700764656067 282.5548324584961 41.605167627334595 285.19666290283203 40.2149612903595 C 287.54947662353516 38.977532148361206 291.12718200683594 38.34955835342407 295.83068084716797 38.34955835342407 C 296.23724365234375 38.34955835342407 296.6523208618164 38.35451865196228 297.07733154296875 38.36377787590027 C 297.07733154296875 38.36377787590027 297.4902801513672 38.37270641326904 297.4902801513672 38.37270641326904 C 297.4902801513672 38.37270641326904 297.4902801513672 50.72087359428406 297.4902801513672 50.72087359428406 Z M 388.6774215698242 57.72415375709534 C 388.6774215698242 57.72415375709534 389.4420623779297 47.28437876701355 389.4420623779297 47.28437876701355 C 389.4420623779297 47.28437876701355 388.5419006347656 47.28437876701355 388.5419006347656 47.28437876701355 C 387.5483169555664 49.97649812698364 386.03653717041016 52.036675453186035 384.0465316772461 53.41133952140808 C 382.0165557861328 54.814111948013306 379.85011291503906 55.79195213317871 377.60018157958984 56.31972789764404 C 376.00254821777344 56.66761016845703 374.4529266357422 56.88817811012268 372.99388885498047 56.97547936439514 C 371.53319549560547 57.06178855895996 370.24137115478516 57.10543918609619 369.1505813598633 57.10543918609619 C 369.1505813598633 57.10543918609619 364.6088562011719 57.10543918609619 364.6088562011719 57.10543918609619 C 364.6088562011719 57.10543918609619 389.99928283691406 21.870123863220215 389.99928283691406 21.870123863220215 C 389.99928283691406 21.870123863220215 356.3297805786133 21.870123863220215 356.3297805786133 21.870123863220215 C 356.3297805786133 21.870123863220215 355.5684509277344 31.87868356704712 355.5684509277344 31.87868356704712 C 355.5684509277344 31.87868356704712 356.4908447265625 31.87868356704712 356.4908447265625 31.87868356704712 C 356.54193115234375 31.77517867088318 356.59869384765625 31.671343088150024 356.6604232788086 31.567838191986084 C 356.75218963623047 31.415060997009277 356.82810974121094 31.262614488601685 356.91349029541016 31.060895681381226 C 358.4486846923828 28.319504022598267 360.2605972290039 26.18723702430725 362.2979049682617 24.721964836120605 C 364.358154296875 23.240158319473267 367.7752685546875 22.48883843421936 372.45275115966797 22.48883843421936 C 372.45275115966797 22.48883843421936 378.6517105102539 22.48883843421936 378.6517105102539 22.48883843421936 C 378.6517105102539 22.48883843421936 352.9509811401367 57.72415375709534 352.9509811401367 57.72415375709534 C 352.9509811401367 57.72415375709534 388.6774215698242 57.72415375709534 388.6774215698242 57.72415375709534 Z M 101.57620239257812 10.591066360473633 C 102.63529968261719 11.50243854522705 103.87059783935547 11.945227861404419 105.3544692993164 11.945227861404419 C 105.60824584960938 11.945227861404419 105.84759521484375 11.932661771774292 106.07535552978516 11.904884099960327 C 106.3035888671875 11.878429174423218 106.54530334472656 11.837754726409912 106.7803955078125 11.78881311416626 C 107.73873901367188 11.522279739379883 108.65096282958984 11.01831340789795 109.49010467529297 10.292125701904297 C 110.29045867919922 9.599006652832031 110.67904663085938 8.7087984085083 110.67904663085938 7.571236610412598 C 110.67904663085938 6.4336748123168945 110.29045867919922 5.543797254562378 109.49010467529297 4.850678205490112 C 108.65214538574219 4.125151872634888 107.74039459228516 3.621185541152954 106.80924987792969 3.360273838043213 C 106.54624938964844 3.3067026138305664 106.3028793334961 3.265366792678833 106.07440948486328 3.237919807434082 C 105.84996032714844 3.2121262550354004 105.60919189453125 3.198237419128418 105.3544692993164 3.198237419128418 C 103.89282989501953 3.198237419128418 102.62110900878906 3.653592824935913 101.57620239257812 4.551737546920776 C 100.53555297851562 5.446575403213501 100.02989196777344 6.434005498886108 100.02989196777344 7.571236610412598 C 100.02989196777344 8.709790468215942 100.53555297851562 9.697551250457764 101.57620239257812 10.591066360473633 Z M 152.38709259033203 10.974662780761719 C 152.57015228271484 10.620497465133667 152.69550323486328 10.282535791397095 152.7581787109375 9.974005222320557 C 152.8210906982422 9.652577877044678 152.85301971435547 9.420435905456543 152.85301971435547 9.28419303894043 C 152.85301971435547 7.48162055015564 151.9696502685547 5.802724838256836 150.22869110107422 4.294463396072388 C 148.46715545654297 2.7709903717041016 146.10890197753906 1.9985065460205078 143.2189712524414 1.9985065460205078 C 142.42263793945312 1.9985065460205078 141.5501480102539 2.082831621170044 140.6253890991211 2.249166965484619 C 139.7034683227539 2.414179563522339 138.76546478271484 2.6932790279388428 137.8326644897461 3.0828278064727783 C 135.31263732910156 4.078525066375732 132.97023010253906 5.866547346115112 130.8704833984375 8.398614406585693 C 128.79013061523438 10.906872034072876 127.7364730834961 14.346012353897095 127.7364730834961 18.62112832069397 C 127.7364730834961 18.62112832069397 127.7364730834961 21.870123863220215 127.7364730834961 21.870123863220215 C 127.7364730834961 21.870123863220215 121.98806762695312 21.870123863220215 121.98806762695312 21.870123863220215 C 121.98806762695312 21.870123863220215 121.98806762695312 22.684935569763184 121.98806762695312 22.684935569763184 C 121.98806762695312 22.684935569763184 127.7364730834961 22.684935569763184 127.7364730834961 22.684935569763184 C 127.7364730834961 22.684935569763184 127.7364730834961 56.68778204917908 127.7364730834961 56.68778204917908 C 127.7364730834961 56.68778204917908 110.16487121582031 56.68778204917908 110.16487121582031 56.68778204917908 C 110.16487121582031 56.68778204917908 110.16487121582031 21.499093532562256 110.16487121582031 21.499093532562256 C 109.4747314453125 21.58507204055786 108.87588500976562 21.65087866783142 108.36856842041016 21.69684410095215 C 107.75505828857422 21.754052877426147 107.1746597290039 21.81159234046936 106.58480072021484 21.870123863220215 C 106.58480072021484 21.870123863220215 94.48890686035156 21.870123863220215 94.48890686035156 21.870123863220215 C 94.48890686035156 21.870123863220215 94.48890686035156 22.684935569763184 94.48890686035156 22.684935569763184 C 94.48890686035156 22.684935569763184 100.95441436767578 22.684935569763184 100.95441436767578 22.684935569763184 C 100.95441436767578 22.684935569763184 100.95441436767578 56.68778204917908 100.95441436767578 56.68778204917908 C 100.95441436767578 56.68778204917908 46.00434112548828 56.68778204917908 46.00434112548828 56.68778204917908 C 46.00434112548828 56.68778204917908 46.00434112548828 57.511852979660034 46.00434112548828 57.511852979660034 C 46.00434112548828 57.511852979660034 63.36686706542969 57.511852979660034 63.36686706542969 57.511852979660034 C 63.36686706542969 57.511852979660034 63.36686706542969 58.940749645233154 63.36686706542969 58.940749645233154 C 63.36686706542969 66.84548139572144 61.448997497558594 72.25386023521423 57.66576385498047 75.0144317150116 C 53.946388244628906 77.71911716461182 49.77338409423828 79.30079102516174 45.26311492919922 79.71547198295593 C 44.41569519042969 79.79649019241333 43.66571807861328 79.85039210319519 42.97368621826172 79.88081526756287 C 42.19792938232422 79.92148971557617 41.44984436035156 79.94100022315979 40.68780517578125 79.94100022315979 C 33.8668212890625 79.94100022315979 28.816360473632812 77.73631286621094 25.67596435546875 73.3881151676178 C 22.567733764648438 69.07100200653076 20.472244262695312 64.28067636489868 19.449569702148438 59.159664154052734 C 18.681854248046875 55.77045750617981 18.2457275390625 52.43812894821167 18.152305603027344 49.25692415237427 C 18.067398071289062 46.321088790893555 18.02222442626953 43.70006704330444 18.02222442626953 41.67758798599243 C 18.02222442626953 41.67758798599243 18.02222442626953 38.460999727249146 18.02222442626953 38.460999727249146 C 18.205047607421875 29.854220390319824 19.76152801513672 21.845983743667603 22.646255493164062 14.658180475234985 C 25.59673309326172 7.346369743347168 32.335174560546875 3.638711929321289 42.6763916015625 3.638711929321289 C 42.6763916015625 3.638711929321289 44.09971618652344 3.638711929321289 44.09971618652344 3.638711929321289 C 49.922149658203125 3.8050472736358643 55.3798828125 5.457157373428345 60.319183349609375 8.548415422439575 C 65.27007293701172 11.646617889404297 68.27542114257812 17.630391359329224 69.25599670410156 26.338691473007202 C 69.25599670410156 26.338691473007202 71.58113861083984 26.338691473007202 71.58113861083984 26.338691473007202 C 71.58113861083984 26.338691473007202 71.30891418457031 2.0064430236816406 71.30891418457031 2.0064430236816406 C 71.30891418457031 2.0064430236816406 68.71343994140625 2.0064430236816406 68.71343994140625 2.0064430236816406 C 68.34211730957031 2.7465195655822754 67.96866607666016 3.317945957183838 67.57794952392578 3.7451930046081543 C 67.09759521484375 4.285204172134399 66.60778045654297 4.666816473007202 66.15296936035156 4.8701887130737305 C 65.55294036865234 5.3083484172821045 64.90962982177734 5.554048538208008 64.24077606201172 5.601006031036377 C 63.67267608642578 5.641019105911255 63.136268615722656 5.654907941818237 62.642433166503906 5.654907941818237 C 59.988304138183594 5.654907941818237 58.12696075439453 5.496839761734009 56.95575714111328 5.174089670181274 C 55.73725128173828 4.852331638336182 54.663963317871094 4.459806680679321 53.67156219482422 3.9733667373657227 C 53.47052764892578 3.8721766471862793 53.331695556640625 3.798433542251587 53.223846435546875 3.7220449447631836 C 52.38233947753906 3.3708558082580566 51.223907470703125 3.004124402999878 49.589141845703125 2.5719170570373535 C 48.08256530761719 2.1916275024414062 45.63207244873047 2.0064430236816406 42.098121643066406 2.0064430236816406 C 30.64624786376953 2.0064430236816406 20.829376220703125 5.983941078186035 12.918312072753906 13.82914924621582 C 5.009849548339844 21.673365354537964 1.0000381469726562 30.446149349212646 1.0000381469726562 39.903454542160034 C 1.0000381469726562 40.74604392051697 1.0234527587890625 41.51356744766235 1.0709915161132812 42.25463604927063 C 1.108123779296875 42.978839635849 1.1767120361328125 43.78108525276184 1.280303955078125 44.710975885391235 C 2.2119216918945312 53.7218542098999 6.0630340576171875 62.11368727684021 12.728630065917969 69.65334105491638 C 19.366554260253906 77.17943668365479 28.86579132080078 80.9952290058136 40.963104248046875 80.9952290058136 C 40.963104248046875 80.9952290058136 42.32209777832031 80.9952290058136 42.32209777832031 80.9952290058136 C 42.741432189941406 80.9952290058136 43.16431427001953 80.95290112495422 43.64183044433594 80.86295437812805 C 52.31658935546875 80.48134207725525 60.376182556152344 78.00086212158203 67.59639739990234 73.4929428100586 C 73.86063385009766 69.56174087524414 77.42887878417969 64.30944609642029 78.20345306396484 57.88420605659485 C 78.20345306396484 57.88420605659485 78.24815368652344 57.511852979660034 78.24815368652344 57.511852979660034 C 78.24815368652344 57.511852979660034 143.4119644165039 57.511852979660034 143.4119644165039 57.511852979660034 C 143.4119644165039 57.511852979660034 143.4119644165039 56.68877410888672 143.4119644165039 56.68877410888672 C 143.4119644165039 56.68877410888672 136.94692993164062 56.68778204917908 136.94692993164062 56.68778204917908 C 136.94692993164062 56.68778204917908 136.94692993164062 22.684935569763184 136.94692993164062 22.684935569763184 C 136.94692993164062 22.684935569763184 147.51590728759766 22.684935569763184 147.51590728759766 22.684935569763184 C 147.51590728759766 22.684935569763184 147.51590728759766 21.870123863220215 147.51590728759766 21.870123863220215 C 147.51590728759766 21.870123863220215 136.94692993164062 21.870123863220215 136.94692993164062 21.870123863220215 C 136.94692993164062 21.870123863220215 136.94692993164062 13.566914796829224 136.94692993164062 13.566914796829224 C 136.94692993164062 10.793777227401733 137.2808837890625 8.21872091293335 137.93885803222656 5.913835525512695 C 138.6417694091797 3.43699312210083 140.52203369140625 2.1807148456573486 143.5261993408203 2.1807148456573486 C 143.54251861572266 2.1807148456573486 145.27590942382812 2.234616756439209 146.68409729003906 2.906902551651001 C 147.9007110595703 3.48659610748291 148.15543365478516 4.227003335952759 148.15543365478516 4.745189189910889 C 148.15543365478516 5.275610446929932 148.04876708984375 5.723360061645508 147.8394546508789 6.074879884719849 C 147.64551544189453 6.4012675285339355 147.35555267333984 6.726001739501953 146.9773712158203 7.040484666824341 C 146.9773712158203 7.040484666824341 146.7496109008789 7.224677085876465 146.7496109008789 7.224677085876465 C 145.9095230102539 7.849013328552246 145.5706024169922 8.165149688720703 145.43366241455078 8.321895122528076 C 145.12950897216797 8.667793273925781 144.97506713867188 9.19358491897583 144.97506713867188 9.884058475494385 C 144.97506713867188 10.674068689346313 145.31067657470703 11.338087320327759 146.0027084350586 11.915135383605957 C 146.707275390625 12.503426790237427 147.70346069335938 12.801706075668335 148.96524810791016 12.801706075668335 C 149.96214294433594 12.801706075668335 150.72347259521484 12.61321473121643 151.22913360595703 12.241523027420044 C 151.75513458251953 11.853958368301392 152.1458511352539 11.426049947738647 152.38709259033203 10.974662780761719 Z M 348.08878326416016 54.55022406578064 C 348.08878326416016 54.55022406578064 347.65360260009766 54.11437916755676 347.65360260009766 54.11437916755676 C 346.09830474853516 55.16497039794922 344.73150634765625 55.8250207901001 343.5884475708008 56.077996015548706 C 342.38365936279297 56.34452939033508 341.54735565185547 56.47448921203613 341.0334167480469 56.47448921203613 C 341.0334167480469 56.47448921203613 340.16187286376953 56.47448921203613 340.16187286376953 56.47448921203613 C 339.8844451904297 56.47448921203613 339.62144470214844 56.43943643569946 339.4182815551758 56.38090491294861 C 338.72672271728516 56.25392127037048 338.08719635009766 55.93150186538696 337.5200424194336 55.42422866821289 C 336.9207229614258 54.89083123207092 336.5564956665039 53.962263345718384 336.4126968383789 52.621659994125366 C 336.33748626708984 52.24633073806763 336.30106353759766 51.96723127365112 336.30106353759766 51.768157958984375 C 336.30106353759766 51.768157958984375 336.30106353759766 22.684935569763184 336.30106353759766 22.684935569763184 C 336.30106353759766 22.684935569763184 345.22959899902344 22.684935569763184 345.22959899902344 22.684935569763184 C 345.22959899902344 22.684935569763184 345.22959899902344 21.870123863220215 345.22959899902344 21.870123863220215 C 345.22959899902344 21.870123863220215 336.30106353759766 21.870123863220215 336.30106353759766 21.870123863220215 C 336.30106353759766 21.870123863220215 336.30106353759766 6.938963890075684 336.30106353759766 6.938963890075684 C 336.30106353759766 6.938963890075684 327.09037017822266 9.685646533966064 327.09037017822266 9.685646533966064 C 327.09037017822266 9.685646533966064 327.09037017822266 21.870123863220215 327.09037017822266 21.870123863220215 C 327.09037017822266 21.870123863220215 318.6745910644531 21.870123863220215 318.6745910644531 21.870123863220215 C 318.6745910644531 21.870123863220215 318.6745910644531 22.684935569763184 318.6745910644531 22.684935569763184 C 318.6745910644531 22.684935569763184 327.09037017822266 22.684935569763184 327.09037017822266 22.684935569763184 C 327.09037017822266 22.684935569763184 327.09037017822266 49.19839262962341 327.09037017822266 49.19839262962341 C 327.09037017822266 51.892165422439575 327.7358093261719 54.14314889907837 329.00965881347656 55.887189865112305 C 330.255126953125 57.590556383132935 332.91895294189453 58.454309701919556 336.92781829833984 58.454309701919556 C 337.5836639404297 58.454309701919556 338.2690734863281 58.39842367172241 338.96678161621094 58.28731298446655 C 339.66212463378906 58.17785573005676 340.3950729370117 58.0356605052948 341.1315689086914 57.8686637878418 C 342.40352630615234 57.532355546951294 343.68920135498047 57.05252933502197 344.9535903930664 56.44108986854553 C 346.07347106933594 55.89942526817322 347.1266555786133 55.26483774185181 348.08878326416016 54.55022406578064 Z M 243.80364990234375 71.72674584388733 C 243.80364990234375 71.72674584388733 243.80364990234375 77.79682850837708 243.80364990234375 77.79682850837708 C 243.80364990234375 77.79682850837708 246.7754135131836 77.79682850837708 246.7754135131836 77.79682850837708 C 246.7754135131836 77.79682850837708 246.7754135131836 71.72674584388733 246.7754135131836 71.72674584388733 C 246.7754135131836 71.72674584388733 247.5164031982422 71.72674584388733 247.5164031982422 71.72674584388733 C 247.5164031982422 71.72674584388733 247.5164031982422 77.79682850837708 247.5164031982422 77.79682850837708 C 247.5164031982422 77.79682850837708 250.4633331298828 77.79682850837708 250.4633331298828 77.79682850837708 C 250.4633331298828 77.79682850837708 250.4633331298828 71.72674584388733 250.4633331298828 71.72674584388733 C 250.4633331298828 71.72674584388733 251.2043228149414 71.72674584388733 251.2043228149414 71.72674584388733 C 251.2043228149414 71.72674584388733 251.2043228149414 78.42182612419128 251.2043228149414 78.42182612419128 C 251.2043228149414 78.42182612419128 243.06171417236328 78.42182612419128 243.06171417236328 78.42182612419128 C 243.06171417236328 78.42182612419128 243.06171417236328 71.72674584388733 243.06171417236328 71.72674584388733 C 243.06171417236328 71.72674584388733 243.80364990234375 71.72674584388733 243.80364990234375 71.72674584388733 Z M 252.64420318603516 74.97541069984436 C 252.64420318603516 74.33189463615417 252.76860809326172 73.75220108032227 253.0176544189453 73.23666071891785 C 253.2667007446289 72.72112035751343 253.61839294433594 72.319997549057 254.07415008544922 72.03296160697937 C 254.52943420410156 71.74625635147095 255.04479217529297 71.60273838043213 255.62164306640625 71.60273838043213 C 256.51092529296875 71.60273838043213 257.23228454589844 71.91523718833923 257.78406524658203 72.54023480415344 C 258.3360824584961 73.16523241996765 258.6123275756836 73.99327158927917 258.6123275756836 75.02468299865723 C 258.6123275756836 75.02468299865723 258.6123275756836 75.1791136264801 258.6123275756836 75.1791136264801 C 258.6123275756836 75.82692861557007 258.4867401123047 76.40992903709412 258.2376937866211 76.92745351791382 C 257.9886474609375 77.44497799873352 257.63790130615234 77.84444737434387 257.1847457885742 78.12453889846802 C 256.73206329345703 78.40529179573059 256.21504974365234 78.54550290107727 255.6341781616211 78.54550290107727 C 254.74891662597656 78.54550290107727 254.02921295166016 78.23333477973938 253.4748306274414 77.60833716392517 C 252.92115783691406 76.98333954811096 252.64420318603516 76.15496969223022 252.64420318603516 75.12355828285217 C 252.64420318603516 75.12355828285217 252.64420318603516 74.97541069984436 252.64420318603516 74.97541069984436 Z M 253.3856658935547 75.1791136264801 C 253.3856658935547 75.97970581054688 253.59190368652344 76.63644933700562 254.0062713623047 77.15033626556396 C 254.41992950439453 77.66422319412231 254.96295928955078 77.92083597183228 255.6341781616211 77.92083597183228 C 256.30137634277344 77.92083597183228 256.84156799316406 77.66422319412231 257.2552261352539 77.15033626556396 C 257.6698303222656 76.63644933700562 257.8767776489258 75.95920324325562 257.8767776489258 75.11727523803711 C 257.8767776489258 75.11727523803711 257.8767776489258 74.97541069984436 257.8767776489258 74.97541069984436 C 257.8767776489258 74.46383857727051 257.7819366455078 73.99558639526367 257.5922546386719 73.57065415382385 C 257.4030456542969 73.14572191238403 257.13744354248047 72.81668877601624 256.79544830322266 72.58355474472046 C 256.4529800415039 72.3507513999939 256.06273651123047 72.23368835449219 255.62164306640625 72.23368835449219 C 254.96295928955078 72.23368835449219 254.42584228515625 72.49261593818665 254.00958251953125 73.01047110557556 C 253.59332275390625 73.52832627296448 253.3856658935547 74.20590305328369 253.3856658935547 75.0432014465332 C 253.3856658935547 75.0432014465332 253.3856658935547 75.1791136264801 253.3856658935547 75.1791136264801 Z M 261.9544677734375 75.35272407531738 C 261.9544677734375 75.35272407531738 260.92942810058594 75.35272407531738 260.92942810058594 75.35272407531738 C 260.92942810058594 75.35272407531738 260.92942810058594 78.42182612419128 260.92942810058594 78.42182612419128 C 260.92942810058594 78.42182612419128 260.18157958984375 78.42182612419128 260.18157958984375 78.42182612419128 C 260.18157958984375 78.42182612419128 260.18157958984375 71.72674584388733 260.18157958984375 71.72674584388733 C 260.18157958984375 71.72674584388733 260.92942810058594 71.72674584388733 260.92942810058594 71.72674584388733 C 260.92942810058594 71.72674584388733 260.92942810058594 74.69697260856628 260.92942810058594 74.69697260856628 C 260.92942810058594 74.69697260856628 261.9424057006836 74.69697260856628 261.9424057006836 74.69697260856628 C 261.9424057006836 74.69697260856628 264.3943176269531 71.72674584388733 264.3943176269531 71.72674584388733 C 264.3943176269531 71.72674584388733 265.3278274536133 71.72674584388733 265.3278274536133 71.72674584388733 C 265.3278274536133 71.72674584388733 262.5840606689453 74.97541069984436 262.5840606689453 74.97541069984436 C 262.5840606689453 74.97541069984436 265.63008880615234 78.42182612419128 265.63008880615234 78.42182612419128 C 265.63008880615234 78.42182612419128 264.65447998046875 78.42182612419128 264.65447998046875 78.42182612419128 C 264.65447998046875 78.42182612419128 261.9544677734375 75.35272407531738 261.9544677734375 75.35272407531738 Z M 266.15608978271484 74.97541069984436 C 266.15608978271484 74.33189463615417 266.2804946899414 73.75220108032227 266.52930450439453 73.23666071891785 C 266.77811431884766 72.72112035751343 267.13004302978516 72.319997549057 267.58580017089844 72.03296160697937 C 268.0410842895508 71.74625635147095 268.5564422607422 71.60273838043213 269.13329315185547 71.60273838043213 C 270.02257537841797 71.60273838043213 270.74393463134766 71.91523718833923 271.2952423095703 72.54023480415344 C 271.8479690551758 73.16523241996765 272.1239776611328 73.99327158927917 272.1239776611328 75.02468299865723 C 272.1239776611328 75.02468299865723 272.1239776611328 75.1791136264801 272.1239776611328 75.1791136264801 C 272.1239776611328 75.82692861557007 271.9983901977539 76.40992903709412 271.7495803833008 76.92745351791382 C 271.50077056884766 77.44497799873352 271.1490783691406 77.84444737434387 270.6959228515625 78.12453889846802 C 270.2432403564453 78.40529179573059 269.72669982910156 78.54550290107727 269.14559173583984 78.54550290107727 C 268.2605667114258 78.54550290107727 267.5408630371094 78.23333477973938 266.98695373535156 77.60833716392517 C 266.4328079223633 76.98333954811096 266.15608978271484 76.15496969223022 266.15608978271484 75.12355828285217 C 266.15608978271484 75.12355828285217 266.15608978271484 74.97541069984436 266.15608978271484 74.97541069984436 Z M 266.89684295654297 75.1791136264801 C 266.89684295654297 75.97970581054688 267.10355377197266 76.63644933700562 267.51744842529297 77.15033626556396 C 267.9311065673828 77.66422319412231 268.474609375 77.92083597183228 269.14559173583984 77.92083597183228 C 269.81302642822266 77.92083597183228 270.3532180786133 77.66422319412231 270.7668762207031 77.15033626556396 C 271.18148040771484 76.63644933700562 271.388427734375 75.95920324325562 271.388427734375 75.11727523803711 C 271.388427734375 75.11727523803711 271.388427734375 74.97541069984436 271.388427734375 74.97541069984436 C 271.388427734375 74.46383857727051 271.29358673095703 73.99558639526367 271.1039047241211 73.57065415382385 C 270.91422271728516 73.14572191238403 270.6490936279297 72.81668877601624 270.3070983886719 72.58355474472046 C 269.96510314941406 72.3507513999939 269.5743865966797 72.23368835449219 269.13329315185547 72.23368835449219 C 268.474609375 72.23368835449219 267.93701934814453 72.49261593818665 267.52123260498047 73.01047110557556 C 267.10497283935547 73.52832627296448 266.89684295654297 74.20590305328369 266.89684295654297 75.0432014465332 C 266.89684295654297 75.0432014465332 266.89684295654297 75.1791136264801 266.89684295654297 75.1791136264801 Z M 278.6909484863281 71.72674584388733 C 278.6909484863281 71.72674584388733 278.6909484863281 78.42182612419128 278.6909484863281 78.42182612419128 C 278.6909484863281 78.42182612419128 277.94995880126953 78.42182612419128 277.94995880126953 78.42182612419128 C 277.94995880126953 78.42182612419128 277.94995880126953 72.3699312210083 277.94995880126953 72.3699312210083 C 277.94995880126953 72.3699312210083 275.21234130859375 72.3699312210083 275.21234130859375 72.3699312210083 C 275.21234130859375 72.3699312210083 275.0952682495117 74.8738899230957 275.0952682495117 74.8738899230957 C 275.04583740234375 75.80113506317139 274.95336151123047 76.50880432128906 274.81736755371094 76.99656701087952 C 274.6816101074219 77.48532176017761 274.4791564941406 77.84477806091309 274.21166229248047 78.07592797279358 C 273.94393157958984 78.30674719810486 273.58750915527344 78.42182612419128 273.14310455322266 78.42182612419128 C 273.14310455322266 78.42182612419128 272.8590545654297 78.42182612419128 272.8590545654297 78.42182612419128 C 272.8590545654297 78.42182612419128 272.8590545654297 77.76607465744019 272.8590545654297 77.76607465744019 C 272.8590545654297 77.76607465744019 273.08728790283203 77.75350856781006 273.08728790283203 77.75350856781006 C 273.5120620727539 77.74524140357971 273.8157424926758 77.53922367095947 274.00140380859375 77.13479399681091 C 274.18682861328125 76.73069500923157 274.3081588745117 76.0088062286377 274.36634063720703 74.9691276550293 C 274.36634063720703 74.9691276550293 274.50162506103516 71.72674584388733 274.50162506103516 71.72674584388733 C 274.50162506103516 71.72674584388733 278.6909484863281 71.72674584388733 278.6909484863281 71.72674584388733 Z M 284.8932189941406 78.42182612419128 C 284.8194274902344 78.21117877960205 284.7723617553711 77.9000027179718 284.75154876708984 77.48763656616211 C 284.4920959472656 77.8259289264679 284.1614532470703 78.08650994300842 283.7603302001953 78.27037167549133 C 283.35826110839844 78.45357203483582 282.9332504272461 78.54550290107727 282.48387908935547 78.54550290107727 C 281.84222412109375 78.54550290107727 281.3218994140625 78.36627078056335 280.924560546875 78.00747585296631 C 280.5262756347656 77.64801955223083 280.32784271240234 77.19464826583862 280.32784271240234 76.64603924751282 C 280.32784271240234 75.99425601959229 280.59888458251953 75.47871565818787 281.1402587890625 75.09875679016113 C 281.6821060180664 74.71945929527283 282.4368133544922 74.52931451797485 283.4048538208008 74.52931451797485 C 283.4048538208008 74.52931451797485 284.7451629638672 74.52931451797485 284.7451629638672 74.52931451797485 C 284.7451629638672 74.52931451797485 284.7451629638672 73.76873540878296 284.7451629638672 73.76873540878296 C 284.7451629638672 73.2902319431305 284.59876251220703 72.91391062736511 284.30335998535156 72.6394407749176 C 284.00914001464844 72.3653016090393 283.5793991088867 72.22773599624634 283.01602935791016 72.22773599624634 C 282.50067138671875 72.22773599624634 282.0742416381836 72.35967993736267 281.7365036010742 72.62389850616455 C 281.3992385864258 72.88778638839722 281.2303695678711 73.20557618141174 281.2303695678711 73.5766065120697 C 281.2303695678711 73.5766065120697 280.4886703491211 73.57065415382385 280.4886703491211 73.57065415382385 C 280.4886703491211 73.03857946395874 280.73582458496094 72.5772716999054 281.2303695678711 72.18772292137146 C 281.7239685058594 71.7975127696991 282.3315658569336 71.60273838043213 283.0529251098633 71.60273838043213 C 283.7981719970703 71.60273838043213 284.38590240478516 71.78957629203796 284.8170623779297 72.16292142868042 C 285.2470397949219 72.53626656532288 285.46817779541016 73.05709791183472 285.48047637939453 73.72541546821594 C 285.48047637939453 73.72541546821594 285.48047637939453 76.893723487854 285.48047637939453 76.893723487854 C 285.48047637939453 77.54153847694397 285.548828125 78.02599430084229 285.68482208251953 78.34742164611816 C 285.68482208251953 78.34742164611816 285.68482208251953 78.42182612419128 285.68482208251953 78.42182612419128 C 285.68482208251953 78.42182612419128 284.8932189941406 78.42182612419128 284.8932189941406 78.42182612419128 Z M 282.5706787109375 77.88975143432617 C 283.0649871826172 77.88975143432617 283.5067901611328 77.77004289627075 283.8958511352539 77.53062582015991 C 284.28538513183594 77.29153943061829 284.5680160522461 76.97176551818848 284.7451629638672 76.5716347694397 C 284.7451629638672 76.5716347694397 284.7451629638672 75.09875679016113 284.7451629638672 75.09875679016113 C 284.7451629638672 75.09875679016113 283.4230651855469 75.09875679016113 283.4230651855469 75.09875679016113 C 282.68609619140625 75.1073546409607 282.10924530029297 75.24227476119995 281.6936950683594 75.50417852401733 C 281.2774353027344 75.76641297340393 281.0697784423828 76.12619996070862 281.0697784423828 76.58420085906982 C 281.0697784423828 76.95919942855835 281.20861053466797 77.27103686332703 281.4869842529297 77.51805973052979 C 281.7646484375 77.76607465744019 282.1255645751953 77.88975143432617 282.5706787109375 77.88975143432617 Z M 287.29735565185547 77.79682850837708 C 287.29735565185547 77.79682850837708 287.6242141723633 77.37024283409119 287.6242141723633 77.37024283409119 C 288.14359283447266 76.6645576953888 288.4420700073242 75.63347697257996 288.52059173583984 74.27600860595703 C 288.52059173583984 74.27600860595703 288.6376647949219 71.72674584388733 288.6376647949219 71.72674584388733 C 288.6376647949219 71.72674584388733 292.58480072021484 71.72674584388733 292.58480072021484 71.72674584388733 C 292.58480072021484 71.72674584388733 292.58480072021484 77.79682850837708 292.58480072021484 77.79682850837708 C 292.58480072021484 77.79682850837708 293.27730560302734 77.79682850837708 293.27730560302734 77.79682850837708 C 293.27730560302734 77.79682850837708 293.27730560302734 80.38974189758301 293.27730560302734 80.38974189758301 C 293.27730560302734 80.38974189758301 292.5419921875 80.38974189758301 292.5419921875 80.38974189758301 C 292.5419921875 80.38974189758301 292.5419921875 78.42182612419128 292.5419921875 78.42182612419128 C 292.5419921875 78.42182612419128 287.5196762084961 78.42182612419128 287.5196762084961 78.42182612419128 C 287.5196762084961 78.42182612419128 287.5196762084961 80.38974189758301 287.5196762084961 80.38974189758301 C 287.5196762084961 80.38974189758301 286.80919647216797 80.38974189758301 286.80919647216797 80.38974189758301 C 286.80919647216797 80.38974189758301 286.81463623046875 77.79682850837708 286.81463623046875 77.79682850837708 C 286.81463623046875 77.79682850837708 287.29735565185547 77.79682850837708 287.29735565185547 77.79682850837708 Z M 288.1495056152344 77.79682850837708 C 288.1495056152344 77.79682850837708 291.84381103515625 77.79682850837708 291.84381103515625 77.79682850837708 C 291.84381103515625 77.79682850837708 291.84381103515625 72.41953420639038 291.84381103515625 72.41953420639038 C 291.84381103515625 72.41953420639038 289.3419952392578 72.41953420639038 289.3419952392578 72.41953420639038 C 289.3419952392578 72.41953420639038 289.26158142089844 74.1582841873169 289.26158142089844 74.1582841873169 C 289.18731689453125 75.75483894348145 288.81717681884766 76.9674665927887 288.1495056152344 77.79682850837708 Z M 297.6262741088867 77.79682850837708 C 297.6262741088867 77.79682850837708 297.953369140625 77.37024283409119 297.953369140625 77.37024283409119 C 298.47298431396484 76.6645576953888 298.77122497558594 75.63347697257996 298.8492736816406 74.27600860595703 C 298.8492736816406 74.27600860595703 298.96634674072266 71.72674584388733 298.96634674072266 71.72674584388733 C 298.96634674072266 71.72674584388733 302.9137191772461 71.72674584388733 302.9137191772461 71.72674584388733 C 302.9137191772461 71.72674584388733 302.9137191772461 77.79682850837708 302.9137191772461 77.79682850837708 C 302.9137191772461 77.79682850837708 303.6062240600586 77.79682850837708 303.6062240600586 77.79682850837708 C 303.6062240600586 77.79682850837708 303.6062240600586 80.38974189758301 303.6062240600586 80.38974189758301 C 303.6062240600586 80.38974189758301 302.87091064453125 80.38974189758301 302.87091064453125 80.38974189758301 C 302.87091064453125 80.38974189758301 302.87091064453125 78.42182612419128 302.87091064453125 78.42182612419128 C 302.87091064453125 78.42182612419128 297.8490676879883 78.42182612419128 297.8490676879883 78.42182612419128 C 297.8490676879883 78.42182612419128 297.8490676879883 80.38974189758301 297.8490676879883 80.38974189758301 C 297.8490676879883 80.38974189758301 297.1381149291992 80.38974189758301 297.1381149291992 80.38974189758301 C 297.1381149291992 80.38974189758301 297.14402770996094 77.79682850837708 297.14402770996094 77.79682850837708 C 297.14402770996094 77.79682850837708 297.6262741088867 77.79682850837708 297.6262741088867 77.79682850837708 Z M 298.4784240722656 77.79682850837708 C 298.4784240722656 77.79682850837708 302.17320251464844 77.79682850837708 302.17320251464844 77.79682850837708 C 302.17320251464844 77.79682850837708 302.17320251464844 72.41953420639038 302.17320251464844 72.41953420639038 C 302.17320251464844 72.41953420639038 299.67091369628906 72.41953420639038 299.67091369628906 72.41953420639038 C 299.67091369628906 72.41953420639038 299.5904998779297 74.1582841873169 299.5904998779297 74.1582841873169 C 299.5162353515625 75.75483894348145 299.1460952758789 76.9674665927887 298.4784240722656 77.79682850837708 Z M 309.42581939697266 71.72674584388733 C 309.42581939697266 71.72674584388733 310.16680908203125 71.72674584388733 310.16680908203125 71.72674584388733 C 310.16680908203125 71.72674584388733 310.16680908203125 78.42182612419128 310.16680908203125 78.42182612419128 C 310.16680908203125 78.42182612419128 309.42581939697266 78.42182612419128 309.42581939697266 78.42182612419128 C 309.42581939697266 78.42182612419128 309.42581939697266 72.9208550453186 309.42581939697266 72.9208550453186 C 309.42581939697266 72.9208550453186 305.8178405761719 78.42182612419128 305.8178405761719 78.42182612419128 C 305.8178405761719 78.42182612419128 305.08229064941406 78.42182612419128 305.08229064941406 78.42182612419128 C 305.08229064941406 78.42182612419128 305.08229064941406 71.72674584388733 305.08229064941406 71.72674584388733 C 305.08229064941406 71.72674584388733 305.8178405761719 71.72674584388733 305.8178405761719 71.72674584388733 C 305.8178405761719 71.72674584388733 305.8178405761719 77.23366928100586 305.8178405761719 77.23366928100586 C 305.8178405761719 77.23366928100586 309.42581939697266 71.72674584388733 309.42581939697266 71.72674584388733 Z M 316.06114196777344 73.49624967575073 C 316.06114196777344 73.09215068817139 315.9114303588867 72.78031325340271 315.61058807373047 72.56206011772156 C 315.3097457885742 72.34347629547119 314.8958511352539 72.23368835449219 314.3684310913086 72.23368835449219 C 313.8909149169922 72.23368835449219 313.48175048828125 72.35703444480896 313.1423568725586 72.60207319259644 C 312.80201721191406 72.84777331352234 312.63196563720703 73.15828800201416 312.63196563720703 73.5336172580719 C 312.63196563720703 73.5336172580719 311.89688873291016 73.5336172580719 311.89688873291016 73.5336172580719 C 311.89688873291016 72.97641038894653 312.13529205322266 72.51675605773926 312.6111526489258 72.15333151817322 C 313.08654022216797 71.7905683517456 313.67237854003906 71.60902142524719 314.3684310913086 71.60902142524719 C 315.13472747802734 71.60902142524719 315.73168182373047 71.77403402328491 316.16024017333984 72.10372853279114 C 316.58785247802734 72.43408441543579 316.80213165283203 72.90233659744263 316.80213165283203 73.50881576538086 C 316.80213165283203 73.83057379722595 316.70350646972656 74.12124729156494 316.5064926147461 74.38149762153625 C 316.3087692260742 74.64108657836914 316.0199890136719 74.84313607215881 315.64109802246094 74.98764610290527 C 316.4979782104492 75.22276425361633 316.92606353759766 75.75483894348145 316.92606353759766 76.58420085906982 C 316.92606353759766 77.18638110160828 316.6935729980469 77.66256976127625 316.2278823852539 78.01342821121216 C 315.76290130615234 78.36395597457886 315.14466094970703 78.5392198562622 314.37481689453125 78.5392198562622 C 313.6290969848633 78.5392198562622 313.0113296508789 78.35172057151794 312.5208053588867 77.9763913154602 C 312.03170013427734 77.60139274597168 311.78572845458984 77.10999250411987 311.78572845458984 76.50351333618164 C 311.78572845458984 76.50351333618164 312.5276641845703 76.50351333618164 312.5276641845703 76.50351333618164 C 312.5276641845703 76.9079430103302 312.7055206298828 77.24524331092834 313.06170654296875 77.51508355140686 C 313.4176559448242 77.7855851650238 313.85567474365234 77.92083597183228 314.37481689453125 77.92083597183228 C 314.9381866455078 77.92083597183228 315.3802261352539 77.8021194934845 315.7002258300781 77.56468653678894 C 316.01927947998047 77.3275842666626 316.17821502685547 77.00483417510986 316.17821502685547 76.59610557556152 C 316.17821502685547 76.14703321456909 316.0327606201172 75.8229603767395 315.7397232055664 75.6248791217804 C 315.44739532470703 75.4271285533905 315.0003890991211 75.32792258262634 314.3994140625 75.32792258262634 C 314.3994140625 75.32792258262634 313.3798141479492 75.32792258262634 313.3798141479492 75.32792258262634 C 313.3798141479492 75.32792258262634 313.3798141479492 74.68440651893616 313.3798141479492 74.68440651893616 C 313.3798141479492 74.68440651893616 314.5233459472656 74.68440651893616 314.5233459472656 74.68440651893616 C 315.5483856201172 74.65960502624512 316.06114196777344 74.26377320289612 316.06114196777344 73.49624967575073 Z M 322.77049255371094 78.42182612419128 C 322.69622802734375 78.21117877960205 322.64916229248047 77.9000027179718 322.62811279296875 77.48763656616211 C 322.36842346191406 77.8259289264679 322.0382537841797 78.08650994300842 321.63665771484375 78.27037167549133 C 321.2350616455078 78.45357203483582 320.81005096435547 78.54550290107727 320.36067962646484 78.54550290107727 C 319.7185516357422 78.54550290107727 319.19822692871094 78.36627078056335 318.8013610839844 78.00747585296631 C 318.403076171875 77.64801955223083 318.2046432495117 77.19464826583862 318.2046432495117 76.64603924751282 C 318.2046432495117 75.99425601959229 318.4756851196289 75.47871565818787 319.0170593261719 75.09875679016113 C 319.5586700439453 74.71945929527283 320.31361389160156 74.52931451797485 321.28165435791016 74.52931451797485 C 321.28165435791016 74.52931451797485 322.62196350097656 74.52931451797485 322.62196350097656 74.52931451797485 C 322.62196350097656 74.52931451797485 322.62196350097656 73.76873540878296 322.62196350097656 73.76873540878296 C 322.62196350097656 73.2902319431305 322.47509002685547 72.91391062736511 322.17992401123047 72.6394407749176 C 321.8854675292969 72.3653016090393 321.4561996459961 72.22773599624634 320.8921203613281 72.22773599624634 C 320.3769989013672 72.22773599624634 319.95104217529297 72.35967993736267 319.61283111572266 72.62389850616455 C 319.2758026123047 72.88778638839722 319.10717010498047 73.20557618141174 319.10717010498047 73.5766065120697 C 319.10717010498047 73.5766065120697 318.36499786376953 73.57065415382385 318.36499786376953 73.57065415382385 C 318.36499786376953 73.03857946395874 318.61238861083984 72.5772716999054 319.10717010498047 72.18772292137146 C 319.60076904296875 71.7975127696991 320.20836639404297 71.60273838043213 320.9294891357422 71.60273838043213 C 321.6747360229492 71.60273838043213 322.26270294189453 71.78957629203796 322.6936264038086 72.16292142868042 C 323.12384033203125 72.53626656532288 323.34497833251953 73.05709791183472 323.35704040527344 73.72541546821594 C 323.35704040527344 73.72541546821594 323.35704040527344 76.893723487854 323.35704040527344 76.893723487854 C 323.35704040527344 77.54153847694397 323.4253921508789 78.02599430084229 323.56138610839844 78.34742164611816 C 323.56138610839844 78.34742164611816 323.56138610839844 78.42182612419128 323.56138610839844 78.42182612419128 C 323.56138610839844 78.42182612419128 322.77049255371094 78.42182612419128 322.77049255371094 78.42182612419128 Z M 320.4474792480469 77.88975143432617 C 320.94178771972656 77.88975143432617 321.3835906982422 77.77004289627075 321.7726516723633 77.53062582015991 C 322.1614761352539 77.29153943061829 322.44481658935547 76.97176551818848 322.62196350097656 76.5716347694397 C 322.62196350097656 76.5716347694397 322.62196350097656 75.09875679016113 322.62196350097656 75.09875679016113 C 322.62196350097656 75.09875679016113 321.2996292114258 75.09875679016113 321.2996292114258 75.09875679016113 C 320.5628967285156 75.1073546409607 319.9858093261719 75.24227476119995 319.57049560546875 75.50417852401733 C 319.1537628173828 75.76641297340393 318.9465789794922 76.12619996070862 318.9465789794922 76.58420085906982 C 318.9465789794922 76.95919942855835 319.08541107177734 77.27103686332703 319.3635482788086 77.51805973052979 C 319.6414489746094 77.76607465744019 320.00189208984375 77.88975143432617 320.4474792480469 77.88975143432617 Z M 329.7201385498047 71.72674584388733 C 329.7201385498047 71.72674584388733 330.4616012573242 71.72674584388733 330.4616012573242 71.72674584388733 C 330.4616012573242 71.72674584388733 330.4616012573242 78.42182612419128 330.4616012573242 78.42182612419128 C 330.4616012573242 78.42182612419128 329.7201385498047 78.42182612419128 329.7201385498047 78.42182612419128 C 329.7201385498047 78.42182612419128 329.7201385498047 72.9208550453186 329.7201385498047 72.9208550453186 C 329.7201385498047 72.9208550453186 326.11263275146484 78.42182612419128 326.11263275146484 78.42182612419128 C 326.11263275146484 78.42182612419128 325.37755584716797 78.42182612419128 325.37755584716797 78.42182612419128 C 325.37755584716797 78.42182612419128 325.37755584716797 71.72674584388733 325.37755584716797 71.72674584388733 C 325.37755584716797 71.72674584388733 326.11263275146484 71.72674584388733 326.11263275146484 71.72674584388733 C 326.11263275146484 71.72674584388733 326.11263275146484 77.23366928100586 326.11263275146484 77.23366928100586 C 326.11263275146484 77.23366928100586 329.7201385498047 71.72674584388733 329.7201385498047 71.72674584388733 Z M 329.68324279785156 69.31339526176453 C 329.68324279785156 69.78759980201721 329.5217056274414 70.17152690887451 329.1986312866211 70.464515209198 C 328.8746109008789 70.75750350952148 328.44203186035156 70.9033362865448 327.89805603027344 70.9033362865448 C 327.3623580932617 70.9033362865448 326.9309616088867 70.75816488265991 326.6041030883789 70.46749138832092 C 326.2762985229492 70.17681789398193 326.11263275146484 69.79189872741699 326.11263275146484 69.31339526176453 C 326.11263275146484 69.31339526176453 326.74293518066406 69.31339526176453 326.74293518066406 69.31339526176453 C 326.74293518066406 69.65598654747009 326.84439849853516 69.91789031028748 327.04874420166016 70.09943723678589 C 327.25238037109375 70.2809841632843 327.5352478027344 70.37126159667969 327.89805603027344 70.37126159667969 C 328.26062774658203 70.37126159667969 328.54349517822266 70.27668523788452 328.74784088134766 70.08687114715576 C 328.95147705078125 69.897057056427 329.0538864135742 69.6394522190094 329.0538864135742 69.31339526176453 C 329.0538864135742 69.31339526176453 329.68324279785156 69.31339526176453 329.68324279785156 69.31339526176453 Z M 337.5723114013672 78.42182612419128 C 337.5723114013672 78.42182612419128 336.83179473876953 78.42182612419128 336.83179473876953 78.42182612419128 C 336.83179473876953 78.42182612419128 336.83179473876953 75.35272407531738 336.83179473876953 75.35272407531738 C 336.83179473876953 75.35272407531738 333.2302017211914 75.35272407531738 333.2302017211914 75.35272407531738 C 333.2302017211914 75.35272407531738 333.2302017211914 78.42182612419128 333.2302017211914 78.42182612419128 C 333.2302017211914 78.42182612419128 332.48826599121094 78.42182612419128 332.48826599121094 78.42182612419128 C 332.48826599121094 78.42182612419128 332.48826599121094 71.72674584388733 332.48826599121094 71.72674584388733 C 332.48826599121094 71.72674584388733 333.2302017211914 71.72674584388733 333.2302017211914 71.72674584388733 C 333.2302017211914 71.72674584388733 333.2302017211914 74.72772645950317 333.2302017211914 74.72772645950317 C 333.2302017211914 74.72772645950317 336.83179473876953 74.72772645950317 336.83179473876953 74.72772645950317 C 336.83179473876953 74.72772645950317 336.83179473876953 71.72674584388733 336.83179473876953 71.72674584388733 C 336.83179473876953 71.72674584388733 337.5723114013672 71.72674584388733 337.5723114013672 71.72674584388733 C 337.5723114013672 71.72674584388733 337.5723114013672 78.42182612419128 337.5723114013672 78.42182612419128 Z M 347.7597961425781 78.42182612419128 C 347.7597961425781 78.42182612419128 347.01880645751953 78.42182612419128 347.01880645751953 78.42182612419128 C 347.01880645751953 78.42182612419128 347.01880645751953 72.3699312210083 347.01880645751953 72.3699312210083 C 347.01880645751953 72.3699312210083 343.4172134399414 72.3699312210083 343.4172134399414 72.3699312210083 C 343.4172134399414 72.3699312210083 343.4172134399414 78.42182612419128 343.4172134399414 78.42182612419128 C 343.4172134399414 78.42182612419128 342.6757507324219 78.42182612419128 342.6757507324219 78.42182612419128 C 342.6757507324219 78.42182612419128 342.6757507324219 71.72674584388733 342.6757507324219 71.72674584388733 C 342.6757507324219 71.72674584388733 347.7597961425781 71.72674584388733 347.7597961425781 71.72674584388733 C 347.7597961425781 71.72674584388733 347.7597961425781 78.42182612419128 347.7597961425781 78.42182612419128 Z M 349.32999420166016 74.97541069984436 C 349.32999420166016 74.33189463615417 349.4543991088867 73.75220108032227 349.7034454345703 73.23666071891785 C 349.95225524902344 72.72112035751343 350.3044204711914 72.319997549057 350.7606506347656 72.03296160697937 C 351.2149887084961 71.74625635147095 351.7303466796875 71.60273838043213 352.3071975708008 71.60273838043213 C 353.1969528198242 71.60273838043213 353.91807556152344 71.91523718833923 354.46961975097656 72.54023480415344 C 355.0218734741211 73.16523241996765 355.2978820800781 73.99327158927917 355.2978820800781 75.02468299865723 C 355.2978820800781 75.02468299865723 355.2978820800781 75.1791136264801 355.2978820800781 75.1791136264801 C 355.2978820800781 75.82692861557007 355.17276763916016 76.40992903709412 354.9234848022461 76.92745351791382 C 354.67467498779297 77.44497799873352 354.3234558105469 77.84444737434387 353.87030029296875 78.12453889846802 C 353.4180908203125 78.40529179573059 352.9006042480469 78.54550290107727 352.3197326660156 78.54550290107727 C 351.4344711303711 78.54550290107727 350.7147674560547 78.23333477973938 350.1613311767578 77.60833716392517 C 349.60694885253906 76.98333954811096 349.32999420166016 76.15496969223022 349.32999420166016 75.12355828285217 C 349.32999420166016 75.12355828285217 349.32999420166016 74.97541069984436 349.32999420166016 74.97541069984436 Z M 350.0712203979492 75.1791136264801 C 350.0712203979492 75.97970581054688 350.2779312133789 76.63644933700562 350.6918258666992 77.15033626556396 C 351.10595703125 77.66422319412231 351.64898681640625 77.92083597183228 352.3197326660156 77.92083597183228 C 352.9874038696289 77.92083597183228 353.52759552001953 77.66422319412231 353.9412536621094 77.15033626556396 C 354.3558578491211 76.63644933700562 354.56280517578125 75.95920324325562 354.56280517578125 75.11727523803711 C 354.56280517578125 75.11727523803711 354.56280517578125 74.97541069984436 354.56280517578125 74.97541069984436 C 354.56280517578125 74.46383857727051 354.4679641723633 73.99558639526367 354.2785186767578 73.57065415382385 C 354.0888366699219 73.14572191238403 353.82323455810547 72.81668877601624 353.48123931884766 72.58355474472046 C 353.13924407958984 72.3507513999939 352.748291015625 72.23368835449219 352.3071975708008 72.23368835449219 C 351.64898681640625 72.23368835449219 351.1113967895508 72.49261593818665 350.6951370239258 73.01047110557556 C 350.2788772583008 73.52832627296448 350.0712203979492 74.20590305328369 350.0712203979492 75.0432014465332 C 350.0712203979492 75.0432014465332 350.0712203979492 75.1791136264801 350.0712203979492 75.1791136264801 Z M 356.2242965698242 77.79682850837708 C 356.2242965698242 77.79682850837708 356.55162811279297 77.37024283409119 356.55162811279297 77.37024283409119 C 357.0712432861328 76.6645576953888 357.3694839477539 75.63347697257996 357.4475326538086 74.27600860595703 C 357.4475326538086 74.27600860595703 357.56507873535156 71.72674584388733 357.56507873535156 71.72674584388733 C 357.56507873535156 71.72674584388733 361.51197814941406 71.72674584388733 361.51197814941406 71.72674584388733 C 361.51197814941406 71.72674584388733 361.51197814941406 77.79682850837708 361.51197814941406 77.79682850837708 C 361.51197814941406 77.79682850837708 362.20471954345703 77.79682850837708 362.20471954345703 77.79682850837708 C 362.20471954345703 77.79682850837708 362.20471954345703 80.38974189758301 362.20471954345703 80.38974189758301 C 362.20471954345703 80.38974189758301 361.46964263916016 80.38974189758301 361.46964263916016 80.38974189758301 C 361.46964263916016 80.38974189758301 361.46964263916016 78.42182612419128 361.46964263916016 78.42182612419128 C 361.46964263916016 78.42182612419128 356.4470901489258 78.42182612419128 356.4470901489258 78.42182612419128 C 356.4470901489258 78.42182612419128 356.4470901489258 80.38974189758301 356.4470901489258 80.38974189758301 C 356.4470901489258 80.38974189758301 355.7363739013672 80.38974189758301 355.7363739013672 80.38974189758301 C 355.7363739013672 80.38974189758301 355.7422866821289 77.79682850837708 355.7422866821289 77.79682850837708 C 355.7422866821289 77.79682850837708 356.2242965698242 77.79682850837708 356.2242965698242 77.79682850837708 Z M 357.07715606689453 77.79682850837708 C 357.07715606689453 77.79682850837708 360.7714614868164 77.79682850837708 360.7714614868164 77.79682850837708 C 360.7714614868164 77.79682850837708 360.7714614868164 72.41953420639038 360.7714614868164 72.41953420639038 C 360.7714614868164 72.41953420639038 358.26964569091797 72.41953420639038 358.26964569091797 72.41953420639038 C 358.26964569091797 72.41953420639038 358.1885223388672 74.1582841873169 358.1885223388672 74.1582841873169 C 358.11473083496094 75.75483894348145 357.74459075927734 76.9674665927887 357.07715606689453 77.79682850837708 Z M 367.85071563720703 78.42182612419128 C 367.7769241333008 78.21117877960205 367.7298583984375 77.9000027179718 367.7092819213867 77.48763656616211 C 367.44959259033203 77.8259289264679 367.1189498901367 78.08650994300842 366.7178268432617 78.27037167549133 C 366.3162307739258 78.45357203483582 365.8907470703125 78.54550290107727 365.4413757324219 78.54550290107727 C 364.79972076416016 78.54550290107727 364.2793960571289 78.36627078056335 363.8820571899414 78.00747585296631 C 363.48424530029297 77.64801955223083 363.28533935546875 77.19464826583862 363.28533935546875 76.64603924751282 C 363.28533935546875 75.99425601959229 363.55638122558594 75.47871565818787 364.0979919433594 75.09875679016113 C 364.6398391723633 74.71945929527283 365.39478302001953 74.52931451797485 366.3623504638672 74.52931451797485 C 366.3623504638672 74.52931451797485 367.7026596069336 74.52931451797485 367.7026596069336 74.52931451797485 C 367.7026596069336 74.52931451797485 367.7026596069336 73.76873540878296 367.7026596069336 73.76873540878296 C 367.7026596069336 73.2902319431305 367.55602264404297 72.91391062736511 367.2606201171875 72.6394407749176 C 366.96663665771484 72.3653016090393 366.5368957519531 72.22773599624634 365.9732894897461 72.22773599624634 C 365.4579315185547 72.22773599624634 365.03221130371094 72.35967993736267 364.6940002441406 72.62389850616455 C 364.3564987182617 72.88778638839722 364.1878662109375 73.20557618141174 364.1878662109375 73.5766065120697 C 364.1878662109375 73.5766065120697 363.44593048095703 73.57065415382385 363.44593048095703 73.57065415382385 C 363.44593048095703 73.03857946395874 363.6935577392578 72.5772716999054 364.1878662109375 72.18772292137146 C 364.68170166015625 71.7975127696991 365.28882598876953 71.60273838043213 366.0101852416992 71.60273838043213 C 366.75543212890625 71.60273838043213 367.3429260253906 71.78957629203796 367.7743225097656 72.16292142868042 C 368.20477294921875 72.53626656532288 368.42567443847656 73.05709791183472 368.43773651123047 73.72541546821594 C 368.43773651123047 73.72541546821594 368.43773651123047 76.893723487854 368.43773651123047 76.893723487854 C 368.43773651123047 77.54153847694397 368.50608825683594 78.02599430084229 368.64208221435547 78.34742164611816 C 368.64208221435547 78.34742164611816 368.64208221435547 78.42182612419128 368.64208221435547 78.42182612419128 C 368.64208221435547 78.42182612419128 367.85071563720703 78.42182612419128 367.85071563720703 78.42182612419128 Z M 365.5281753540039 77.88975143432617 C 366.02295684814453 77.88975143432617 366.46475982666016 77.77004289627075 366.8535842895508 77.53062582015991 C 367.2426452636719 77.29153943061829 367.5255126953125 76.97176551818848 367.7026596069336 76.5716347694397 C 367.7026596069336 76.5716347694397 367.7026596069336 75.09875679016113 367.7026596069336 75.09875679016113 C 367.7026596069336 75.09875679016113 366.38079833984375 75.09875679016113 366.38079833984375 75.09875679016113 C 365.64359283447266 75.1073546409607 365.0665054321289 75.24227476119995 364.6511917114258 75.50417852401733 C 364.2349319458008 75.76641297340393 364.02703857421875 76.12619996070862 364.02703857421875 76.58420085906982 C 364.02703857421875 76.95919942855835 364.1665802001953 77.27103686332703 364.4442443847656 77.51805973052979 C 364.72167205810547 77.76607465744019 365.08282470703125 77.88975143432617 365.5281753540039 77.88975143432617 Z M 375.7840118408203 75.14207673072815 C 375.7840118408203 76.18605422973633 375.5531768798828 77.01409339904785 375.0915069580078 77.62685561180115 C 374.6307830810547 78.23928713798523 374.0123062133789 78.54550290107727 373.2386779785156 78.54550290107727 C 372.32432556152344 78.54550290107727 371.623779296875 78.22374486923218 371.1384582519531 77.57989811897278 C 371.1384582519531 77.57989811897278 371.1384582519531 80.99622106552124 371.1384582519531 80.99622106552124 C 371.1384582519531 80.99622106552124 370.4029083251953 80.99622106552124 370.4029083251953 80.99622106552124 C 370.4029083251953 80.99622106552124 370.4029083251953 71.72674584388733 370.4029083251953 71.72674584388733 C 370.4029083251953 71.72674584388733 371.0887908935547 71.72674584388733 371.0887908935547 71.72674584388733 C 371.0887908935547 71.72674584388733 371.1259231567383 72.67350149154663 371.1259231567383 72.67350149154663 C 371.6072235107422 71.9598798751831 372.30540466308594 71.60273838043213 373.2192840576172 71.60273838043213 C 374.0191650390625 71.60273838043213 374.64544677734375 71.90630865097046 375.10120391845703 72.51278781890869 C 375.5564880371094 73.11893630027771 375.7840118408203 73.960533618927 375.7840118408203 75.03724908828735 C 375.7840118408203 75.03724908828735 375.7840118408203 75.14207673072815 375.7840118408203 75.14207673072815 Z M 375.04207611083984 75.01244759559631 C 375.04207611083984 74.1582841873169 374.86705780029297 73.48401427268982 374.51678466796875 72.98897647857666 C 374.1676940917969 72.4939386844635 373.67835235595703 72.24625444412231 373.05301666259766 72.24625444412231 C 372.5993881225586 72.24625444412231 372.21056365966797 72.3557116985321 371.8848876953125 72.57429552078247 C 371.5601577758789 72.79287934303284 371.3104019165039 73.11066913604736 371.1384582519531 73.52700352668762 C 371.1384582519531 73.52700352668762 371.1384582519531 76.73896217346191 371.1384582519531 76.73896217346191 C 371.31465911865234 77.12222790718079 371.5684356689453 77.41554689407349 371.89742279052734 77.61759638786316 C 372.2268829345703 77.81931519508362 372.6161804199219 77.92083597183228 373.06531524658203 77.92083597183228 C 373.68663024902344 77.92083597183228 374.1721878051758 77.67215967178345 374.5200958251953 77.175137758255 C 374.8684768676758 76.67778515815735 375.04207611083984 75.95688843727112 375.04207611083984 75.01244759559631 Z M 377.0133972167969 74.97541069984436 C 377.0133972167969 74.33189463615417 377.1380386352539 73.75220108032227 377.38684844970703 73.23666071891785 C 377.6361312866211 72.72112035751343 377.9878234863281 72.319997549057 378.4438171386719 72.03296160697937 C 378.89886474609375 71.74625635147095 379.4139862060547 71.60273838043213 379.99107360839844 71.60273838043213 C 380.8805923461914 71.60273838043213 381.60147857666016 71.91523718833923 382.15325927734375 72.54023480415344 C 382.7055130004883 73.16523241996765 382.9817581176758 73.99327158927917 382.9817581176758 75.02468299865723 C 382.9817581176758 75.02468299865723 382.9817581176758 75.1791136264801 382.9817581176758 75.1791136264801 C 382.9817581176758 75.82692861557007 382.8561706542969 76.40992903709412 382.6068878173828 76.92745351791382 C 382.3580780029297 77.44497799873352 382.00733184814453 77.84444737434387 381.5541763305664 78.12453889846802 C 381.10125732421875 78.40529179573059 380.58448028564453 78.54550290107727 380.0036087036133 78.54550290107727 C 379.11834716796875 78.54550290107727 378.39864349365234 78.23333477973938 377.8442611694336 77.60833716392517 C 377.2903518676758 76.98333954811096 377.0133972167969 76.15496969223022 377.0133972167969 75.12355828285217 C 377.0133972167969 75.12355828285217 377.0133972167969 74.97541069984436 377.0133972167969 74.97541069984436 Z M 377.7548599243164 75.1791136264801 C 377.7548599243164 75.97970581054688 377.96180725097656 76.63644933700562 378.3754653930664 77.15033626556396 C 378.7893600463867 77.66422319412231 379.33262634277344 77.92083597183228 380.0036087036133 77.92083597183228 C 380.67127990722656 77.92083597183228 381.2107620239258 77.66422319412231 381.6246566772461 77.15033626556396 C 382.0392608642578 76.63644933700562 382.24644470214844 75.95920324325562 382.24644470214844 75.11727523803711 C 382.24644470214844 75.11727523803711 382.24644470214844 74.97541069984436 382.24644470214844 74.97541069984436 C 382.24644470214844 74.46383857727051 382.15113067626953 73.99558639526367 381.96192169189453 73.57065415382385 C 381.7722396850586 73.14572191238403 381.5071105957031 72.81668877601624 381.1646423339844 72.58355474472046 C 380.82264709472656 72.3507513999939 380.43216705322266 72.23368835449219 379.99107360839844 72.23368835449219 C 379.33262634277344 72.23368835449219 378.79503631591797 72.49261593818665 378.37877655029297 73.01047110557556 C 377.96251678466797 73.52832627296448 377.7548599243164 74.20590305328369 377.7548599243164 75.0432014465332 C 377.7548599243164 75.0432014465332 377.7548599243164 75.1791136264801 377.7548599243164 75.1791136264801 Z M 386.3238983154297 75.35272407531738 C 386.3238983154297 75.35272407531738 385.2988586425781 75.35272407531738 385.2988586425781 75.35272407531738 C 385.2988586425781 75.35272407531738 385.2988586425781 78.42182612419128 385.2988586425781 78.42182612419128 C 385.2988586425781 78.42182612419128 384.55101013183594 78.42182612419128 384.55101013183594 78.42182612419128 C 384.55101013183594 78.42182612419128 384.55101013183594 71.72674584388733 384.55101013183594 71.72674584388733 C 384.55101013183594 71.72674584388733 385.2988586425781 71.72674584388733 385.2988586425781 71.72674584388733 C 385.2988586425781 71.72674584388733 385.2988586425781 74.69697260856628 385.2988586425781 74.69697260856628 C 385.2988586425781 74.69697260856628 386.3118362426758 74.69697260856628 386.3118362426758 74.69697260856628 C 386.3118362426758 74.69697260856628 388.7639846801758 71.72674584388733 388.7639846801758 71.72674584388733 C 388.7639846801758 71.72674584388733 389.69725799560547 71.72674584388733 389.69725799560547 71.72674584388733 C 389.69725799560547 71.72674584388733 386.95372772216797 74.97541069984436 386.95372772216797 74.97541069984436 C 386.95372772216797 74.97541069984436 389.99928283691406 78.42182612419128 389.99928283691406 78.42182612419128 C 389.99928283691406 78.42182612419128 389.02367401123047 78.42182612419128 389.02367401123047 78.42182612419128 C 389.02367401123047 78.42182612419128 386.3238983154297 75.35272407531738 386.3238983154297 75.35272407531738 Z"/></g></svg>