<?xml version="1.0" encoding="utf-8"?>
<!-- Generator: Adobe Illustrator 24.2.0, SVG Export Plug-In . SVG Version: 6.00 Build 0)  -->
<svg version="1.1" id="Layer_1" xmlns="http://www.w3.org/2000/svg" xmlns:xlink="http://www.w3.org/1999/xlink" x="0px" y="0px"
	 viewBox="0 0 548.43 254.49" style="enable-background:new 0 0 548.43 254.49;" xml:space="preserve">
<style type="text/css">
	.st0{fill:#2E3132;}
</style>
<g>
	<g>
		<path class="st0" d="M67.81,139.93v-1.31h46.57v30.35c-9.72,6.08-20.66,9.11-32.81,9.11h-1.82c-11.38,0-21.99-2.98-31.82-8.95
			c-9.83-5.97-17.59-13.89-23.28-23.78c-5.69-9.89-8.53-20.41-8.53-31.57c0-17.57,6.35-32.67,19.06-45.33
			c12.7-12.65,27.9-18.98,45.57-18.98c11.82,0,23.03,3.1,33.64,9.28v6.13c-10.39-7.07-21.6-10.6-33.64-10.6
			c-16.24,0-30.16,5.83-41.76,17.48c-11.6,11.66-17.4,25.63-17.4,41.93c0,16.3,5.8,30.3,17.4,42.01
			c11.6,11.71,25.52,17.57,41.76,17.57c9.06,0,18.45-2.32,28.17-6.96v-26.41L67.81,139.93z"/>
	</g>
	<g>
		<path class="st0" d="M138.24,61.01c-3.21,0-4.81-1.49-4.81-4.47c0-2.98,1.6-4.47,4.81-4.47c3.2,0,4.81,1.49,4.81,4.47
			C143.05,59.52,141.44,61.01,138.24,61.01z M140.89,85.89v53.38l-5.3-0.06V85.89H140.89z"/>
	</g>
	<g>
		<path class="st0" d="M191.27,49.49v4.64c-6.41,0-11.85,2.21-16.32,6.63c-4.48,4.42-6.71,10-6.71,16.74v10.39l23.2-0.08v0.65h-23.2
			v50.17h-5.3V77.5c0-8.18,2.76-14.89,8.29-20.14C176.74,52.12,183.43,49.49,191.27,49.49z"/>
	</g>
	<g>
		<path class="st0" d="M231.67,135.21v4.69c-7.93,0-14.68-2.65-20.26-7.95c-5.58-5.3-8.37-12.08-8.37-20.34v-62.1h5.36v38.86
			l23.11-0.19v0.67H208.4v22.75c0,6.81,2.26,12.45,6.78,16.91C219.7,132.98,225.2,135.21,231.67,135.21z"/>
	</g>
	<g>
		<path class="st0" d="M473.62,135.2v4.69c-7.93,0-14.68-2.65-20.26-7.95c-5.58-5.3-8.37-12.08-8.37-20.34V49.51h5.36v39.06h23.1
			v0.28h-23.1v22.75c0,6.81,2.26,12.45,6.78,16.91C461.65,132.97,467.14,135.2,473.62,135.2z"/>
	</g>
	<g>
		<path class="st0" d="M268.65,178.68l0.01-90.1l3.8-0.48v9.19c2.14-4.35,5.48-7.83,10.03-10.44c4.55-2.61,9.28-3.92,14.18-3.92
			c7.83,0,14.5,2.75,20,8.25c5.5,5.5,8.25,12.09,8.25,19.76c0,7.68-2.75,14.26-8.25,19.76c-5.5,5.5-12.17,8.25-20,8.25
			c-4.75,0-9.38-1.29-13.89-3.86c-4.51-2.57-7.95-6.03-10.33-10.39v53.97H268.65z M272.23,111.07c0,6.65,2.43,12.4,7.3,17.27
			c4.87,4.87,10.64,7.3,17.33,7.3c6.69,0,12.4-2.43,17.15-7.3c4.75-4.87,7.12-10.64,7.12-17.33c0-6.69-2.39-12.48-7.18-17.39
			c-4.79-4.91-10.51-7.36-17.15-7.36c-6.65,0-12.4,2.47-17.27,7.42C274.66,98.62,272.23,104.42,272.23,111.07z"/>
	</g>
	<g>
		<path class="st0" d="M364.41,135.32v4.7c-7.94,0-14.7-2.66-20.29-7.97c-5.59-5.31-8.39-12.1-8.39-20.38V49.51h5.37v62.16
			c0,6.82,2.26,12.47,6.79,16.94C352.42,133.08,357.93,135.32,364.41,135.32z"/>
	</g>
	<g>
		<path class="st0" d="M425.73,84.07v53.6h-3.81v-13.34c-2.22,4.53-5.56,8.1-10.01,10.72c-4.45,2.62-9.21,3.93-14.3,3.93
			c-7.78,0-14.45-2.76-20.01-8.28c-5.56-5.52-8.34-12.13-8.34-19.83c0-7.7,2.78-14.31,8.34-19.83c5.56-5.52,12.23-8.28,20.01-8.28
			c5.08,0,9.95,1.35,14.59,4.05c4.65,2.7,7.88,6.27,9.71,10.72V84.07H425.73z M373.08,110.99c0,6.67,2.44,12.45,7.32,17.33
			c4.88,4.88,10.68,7.32,17.39,7.32s12.45-2.44,17.22-7.32c4.76-4.88,7.14-10.68,7.14-17.39c0-6.71-2.4-12.53-7.21-17.45
			c-4.81-4.92-10.54-7.39-17.21-7.39c-6.67,0-12.45,2.48-17.33,7.44C375.52,98.5,373.08,104.32,373.08,110.99z"/>
	</g>
	<g>
		<path class="st0" d="M528.79,136.76v3.27h-36.16l31.06-51.18l-27.91-0.03v-1.27h33.36l-29.98,49.22H528.79z"/>
	</g>
</g>
<g>
	<rect x="67.98" y="138.63" class="st0" width="123.64" height="1.29"/>
</g>
<g>
	<rect x="163.52" y="87.52" class="st0" width="108.92" height="1.29"/>
</g>
<g>
	<rect x="450.17" y="87.52" class="st0" width="26.18" height="1.29"/>
</g>
<g>
	<path class="st0" d="M293.37,166.84h-10.25v-9.94h0.71v9.32h4.06v-9.32h0.71v9.32h4.06v-9.32h0.71V166.84z"/>
	<path class="st0" d="M295.91,161.83c0-1.4,0.52-2.61,1.55-3.63s2.27-1.53,3.72-1.53c1.45,0,2.69,0.51,3.71,1.53
		s1.53,2.24,1.53,3.64s-0.5,2.63-1.5,3.68c-1,1.05-2.22,1.57-3.64,1.57h-0.22c-1.38,0-2.59-0.53-3.61-1.58
		C296.42,164.45,295.91,163.23,295.91,161.83z M305.71,161.89c0-1.24-0.45-2.32-1.34-3.23s-1.95-1.37-3.19-1.37
		s-2.31,0.46-3.21,1.38c-0.91,0.92-1.36,2-1.36,3.23s0.45,2.31,1.36,3.21s1.98,1.36,3.22,1.36c1.24,0,2.31-0.45,3.19-1.36
		S305.71,163.13,305.71,161.89z"/>
	<path class="st0" d="M308.96,156.91h0.71v3.44l3.93-3.44h0.91l-4.55,3.97l5.7,5.96h-0.95l-5.03-5.23v5.23h-0.71V156.91z"/>
	<path class="st0" d="M317.08,161.83c0-1.4,0.52-2.61,1.55-3.63s2.27-1.53,3.72-1.53c1.45,0,2.69,0.51,3.71,1.53
		s1.53,2.24,1.53,3.64s-0.5,2.63-1.5,3.68c-1,1.05-2.22,1.57-3.64,1.57h-0.22c-1.38,0-2.59-0.53-3.61-1.58
		C317.59,164.45,317.08,163.23,317.08,161.83z M326.88,161.89c0-1.24-0.45-2.32-1.34-3.23s-1.95-1.37-3.19-1.37
		s-2.31,0.46-3.21,1.38c-0.91,0.92-1.36,2-1.36,3.23s0.45,2.31,1.36,3.21s1.98,1.36,3.22,1.36c1.24,0,2.31-0.45,3.19-1.36
		S326.88,163.13,326.88,161.89z"/>
	<path class="st0" d="M329.67,166.84h-0.64l4.88-10.22l4.9,10.22h-0.77l-4.2-8.72L329.67,166.84z"/>
	<path class="st0" d="M350.71,156.91v9.94H350v-2.47c-0.41,0.84-1.03,1.5-1.85,1.99s-1.71,0.73-2.65,0.73
		c-1.44,0-2.68-0.51-3.71-1.53s-1.55-2.25-1.55-3.68s0.52-2.65,1.55-3.68s2.27-1.53,3.71-1.53c0.94,0,1.84,0.25,2.7,0.75
		c0.86,0.5,1.46,1.16,1.8,1.99v-2.5H350.71z M340.95,161.9c0,1.24,0.45,2.31,1.36,3.21s1.98,1.36,3.22,1.36
		c1.24,0,2.31-0.45,3.19-1.36s1.32-1.98,1.32-3.22c0-1.24-0.45-2.32-1.34-3.23s-1.95-1.37-3.19-1.37s-2.31,0.46-3.21,1.38
		C341.4,159.58,340.95,160.66,340.95,161.9z"/>
	<path class="st0" d="M352.92,168.1v-1.83h0.77l4.61-9.65l4.61,9.63h0.73v1.85h-0.62v-1.26h-9.54v1.26H352.92z M358.24,158.12
		l-3.89,8.13h7.79L358.24,158.12z"/>
	<path class="st0" d="M372.48,168.1v-1.83h0.77l4.61-9.65l4.61,9.63h0.73v1.85h-0.62v-1.26h-9.54v1.26H372.48z M377.8,158.12
		l-3.89,8.13h7.79L377.8,158.12z"/>
	<path class="st0" d="M393.87,156.93v9.91h-0.68v-8.81l-7.15,8.81h-0.62v-9.91h0.68v8.81l7.13-8.81H393.87z"/>
	<path class="st0" d="M398.93,156.73c0.63,0,1.16,0.2,1.58,0.61c0.42,0.41,0.63,0.85,0.63,1.32c0,0.48-0.1,0.87-0.3,1.18
		c-0.2,0.31-0.43,0.53-0.7,0.66c0.66,0.18,1.23,0.58,1.7,1.2c0.47,0.63,0.71,1.35,0.71,2.17s-0.34,1.57-1.03,2.24
		c-0.68,0.67-1.5,1-2.44,1c-1.25,0-2.22-0.5-2.89-1.5v-1.32c0.22,0.66,0.58,1.2,1.08,1.61s1.11,0.62,1.83,0.62
		c0.72,0,1.36-0.28,1.91-0.84c0.55-0.56,0.83-1.22,0.83-1.98c0-0.76-0.28-1.42-0.83-1.99c-0.55-0.57-1.2-0.85-1.93-0.85h-0.53v-0.6
		h0.44c0.4,0,0.74-0.15,1.02-0.44s0.42-0.64,0.42-1.04s-0.14-0.74-0.42-1.04s-0.62-0.44-1.02-0.44c-0.82,0-1.4,0.52-1.72,1.57v-1.39
		C397.74,156.99,398.3,156.73,398.93,156.73z"/>
	<path class="st0" d="M414.78,156.91v9.94h-0.71v-2.47c-0.41,0.84-1.03,1.5-1.85,1.99s-1.71,0.73-2.65,0.73
		c-1.44,0-2.68-0.51-3.71-1.53s-1.55-2.25-1.55-3.68s0.52-2.65,1.55-3.68s2.27-1.53,3.71-1.53c0.94,0,1.84,0.25,2.7,0.75
		c0.86,0.5,1.46,1.16,1.8,1.99v-2.5H414.78z M405.02,161.9c0,1.24,0.45,2.31,1.36,3.21s1.98,1.36,3.22,1.36
		c1.24,0,2.31-0.45,3.19-1.36s1.32-1.98,1.32-3.22c0-1.24-0.45-2.32-1.34-3.23s-1.95-1.37-3.19-1.37s-2.31,0.46-3.21,1.38
		C405.48,159.58,405.02,160.66,405.02,161.9z"/>
	<path class="st0" d="M426.55,156.93v9.91h-0.68v-8.81l-7.15,8.81h-0.62v-9.91h0.68v8.81l7.13-8.81H426.55z M421.12,152.9
		c0.41,0.39,0.89,0.58,1.42,0.58c0.54,0,1.01-0.2,1.42-0.6c0.41-0.4,0.65-0.86,0.71-1.39h0.64c-0.03,0.69-0.31,1.29-0.83,1.8
		s-1.14,0.76-1.84,0.76h-0.18c-0.71,0-1.32-0.25-1.83-0.75c-0.52-0.5-0.79-1.1-0.82-1.81h0.62
		C420.48,152.04,420.71,152.51,421.12,152.9z"/>
	<path class="st0" d="M437.3,156.91h0.71v9.94h-0.71v-3.73h-6.73v3.73h-0.71v-9.94h0.71v5.59h6.73V156.91z"/>
	<path class="st0" d="M449.05,156.91h7.99v9.94h-0.71v-9.32h-6.58v9.32h-0.71V156.91z"/>
	<path class="st0" d="M459.58,161.83c0-1.4,0.52-2.61,1.55-3.63s2.27-1.53,3.72-1.53c1.45,0,2.69,0.51,3.71,1.53
		s1.53,2.24,1.53,3.64s-0.5,2.63-1.5,3.68c-1,1.05-2.22,1.57-3.64,1.57h-0.22c-1.38,0-2.59-0.53-3.61-1.58
		C460.09,164.45,459.58,163.23,459.58,161.83z M469.38,161.89c0-1.24-0.45-2.32-1.34-3.23s-1.95-1.37-3.19-1.37
		s-2.31,0.46-3.21,1.38c-0.91,0.92-1.36,2-1.36,3.23s0.45,2.31,1.36,3.21s1.98,1.36,3.22,1.36c1.24,0,2.31-0.45,3.19-1.36
		S469.38,163.13,469.38,161.89z"/>
	<path class="st0" d="M471.53,168.1v-1.83h0.77l4.61-9.65l4.61,9.63h0.73v1.85h-0.62v-1.26h-9.54v1.26H471.53z M476.85,158.12
		l-3.89,8.13h7.79L476.85,158.12z"/>
	<path class="st0" d="M483.69,161.83c0-1.4,0.52-2.61,1.55-3.63s2.27-1.53,3.72-1.53c1.45,0,2.69,0.51,3.71,1.53
		s1.53,2.24,1.53,3.64s-0.5,2.63-1.5,3.68c-1,1.05-2.22,1.57-3.64,1.57h-0.22c-1.38,0-2.59-0.53-3.61-1.58
		C484.2,164.45,483.69,163.23,483.69,161.83z M493.49,161.89c0-1.24-0.45-2.32-1.34-3.23s-1.95-1.37-3.19-1.37s-2.31,0.46-3.21,1.38
		c-0.91,0.92-1.36,2-1.36,3.23s0.45,2.31,1.36,3.21s1.98,1.36,3.22,1.36c1.24,0,2.31-0.45,3.19-1.36S493.49,163.13,493.49,161.89z"
		/>
	<path class="st0" d="M496.74,171.26v-14.35h0.71v2.43c0.4-0.81,1.02-1.46,1.87-1.94c0.85-0.49,1.73-0.73,2.64-0.73
		c1.46,0,2.7,0.51,3.72,1.53c1.02,1.02,1.53,2.25,1.53,3.68s-0.51,2.65-1.53,3.68c-1.02,1.02-2.26,1.53-3.72,1.53
		c-0.88,0-1.74-0.24-2.58-0.72c-0.84-0.48-1.48-1.12-1.92-1.93v6.82H496.74z M497.4,161.9c0,1.24,0.45,2.31,1.36,3.21
		s1.98,1.36,3.22,1.36c1.24,0,2.31-0.45,3.19-1.36s1.32-1.98,1.32-3.22c0-1.24-0.45-2.32-1.34-3.23c-0.89-0.91-1.95-1.37-3.19-1.37
		c-1.24,0-2.31,0.46-3.21,1.38C497.86,159.58,497.4,160.66,497.4,161.9z"/>
	<path class="st0" d="M508.97,161.83c0-1.4,0.52-2.61,1.55-3.63s2.27-1.53,3.72-1.53c1.45,0,2.69,0.51,3.71,1.53
		s1.53,2.24,1.53,3.64s-0.5,2.63-1.5,3.68c-1,1.05-2.22,1.57-3.64,1.57h-0.22c-1.38,0-2.59-0.53-3.61-1.58
		C509.48,164.45,508.97,163.23,508.97,161.83z M518.78,161.89c0-1.24-0.45-2.32-1.34-3.23s-1.95-1.37-3.19-1.37
		s-2.31,0.46-3.21,1.38c-0.91,0.92-1.36,2-1.36,3.23s0.45,2.31,1.36,3.21s1.98,1.36,3.22,1.36c1.24,0,2.31-0.45,3.19-1.36
		S518.78,163.13,518.78,161.89z"/>
	<path class="st0" d="M522.02,156.91h0.71v3.44l3.93-3.44h0.91l-4.55,3.97l5.7,5.96h-0.95l-5.03-5.23v5.23h-0.71V156.91z"/>
</g>
</svg>
